<?xml version="1.0" encoding="UTF-8"?>
<svg id="LAL_x5F_Logo_x5F_CCFR_x5F_Horiz_x5F_Color_x2B_White" xmlns="http://www.w3.org/2000/svg" version="1.1" viewBox="0 0 423 99">
  <!-- Generator: Adobe Illustrator 30.3.0, SVG Export Plug-In . SVG Version: 2.1.3 Build 182)  -->
  <defs>
    <style>
      .st0, .st1, .st2, .st3, .st4, .st5, .st6 {
        fill-rule: evenodd;
      }

      .st0, .st7 {
        fill: #fff;
      }

      .st8, .st9, .st10, .st4, .st5, .st6 {
        stroke: #51534a;
      }

      .st8, .st9, .st3, .st4, .st5, .st6 {
        stroke-miterlimit: 10;
      }

      .st8, .st9, .st4, .st6 {
        fill: none;
      }

      .st8, .st5, .st6 {
        stroke-width: 1.1px;
      }

      .st9 {
        stroke-width: .9px;
      }

      .st1 {
        fill: #60a57d;
      }

      .st11 {
        fill: #8dc5db;
      }

      .st10 {
        stroke-linejoin: bevel;
        stroke-width: 1px;
      }

      .st10, .st12 {
        fill: #9e7156;
      }

      .st2, .st3 {
        fill: #bcbec0;
      }

      .st13 {
        fill: #f5b62b;
      }

      .st3 {
        stroke: #ec008c;
        stroke-width: 1px;
      }

      .st4 {
        stroke-width: 2.1px;
      }

      .st14 {
        fill: #51534a;
      }

      .st5 {
        fill: #c2b59b;
      }
    </style>
  </defs>
  <g>
    <g>
      <polygon class="st11" points="18.5 81.1 15.2 87.5 91.1 87.5 87.9 81.1 18.5 81.1"/>
      <path class="st3" d="M31,81.1"/>
      <path class="st9" d="M53.1,81.9"/>
      <path class="st8" d="M24.1,87.6"/>
      <path class="st8" d="M17.4,81.4"/>
      <path class="st4" d="M69.4,84.8"/>
      <path class="st6" d="M88.1,81.5"/>
      <path class="st6" d="M65.1,84.9"/>
    </g>
    <g>
      <polygon class="st7" points="53.3 15.4 86.6 80.6 20 80.6 53.3 15.4"/>
      <path class="st14" d="M91.4,85.2L55.2,14.4l-1.9-3.8-1.9,3.8L15.1,85.2l-1.6,3.2h79.5l-1.6-3.2ZM28.8,83.9c.6,0,1.2,0,1.8-.1,4.3-.6,7-1.8,7.8-2.2h8.5c-1.1.3-2.6.8-4.5,1.3-.9.3-1.8.5-2.9.9-.9.2-1.5.4-1.6.5-8.2,2.4-13.5.4-16.3-1.5,2,.6,4.6,1.2,7.1,1.2ZM21.3,81.6h14.5c-1.3.4-3.1.9-5.4,1.2-3.1.4-6.8-.5-9.2-1.2ZM38.2,85.2c.5-.2,1-.3,1.5-.4,1.2-.3,3-.6,5.2-.5,4.7.1,8,1.2,9.8,1.9h-21.3c1.5-.2,3.1-.5,4.8-1ZM45,83.3c0,0-.1,0-.2,0,.6-.2,1.2-.4,1.7-.5,5.9-1.1,8.4,0,10.2.9.2.1.5.2.7.3.4.2.9.4,1.4.7.1,0,.4.3.9.5.6.3,1.2.7,1.8,1h-4.6c-.2-.1-4.1-2.7-11.9-2.9ZM53.9,81.6h21.4c-1.9.7-4.6,1.5-6.9,1.9-6,1.1-12.7-1.4-12.8-1.4h0c-.5-.2-1.1-.4-1.8-.5ZM60.4,84.4c1.4.2,3,.4,4.7.4s2.4,0,3.5-.3c3.9-.7,8.7-2.6,9.5-2.9h8.9c-1.6.5-6,1.9-9.8,2.8-9.3,2.3-14.7.8-16.9,0ZM53.3,15.4l33.3,65.2H20L53.3,15.4ZM19.2,82.1c.6.6,1.5,1.3,2.7,2,1.6.9,3.8,1.8,6.7,2.2h-11.5l2.1-4.2ZM73.7,86.2c1.2-.2,2.5-.4,3.9-.8,3.9-1,8.6-2.4,10-2.9l1.9,3.7h-15.8Z"/>
    </g>
    <path class="st3" d="M53.3,37.6"/>
    <g>
      <circle class="st13" cx="53.3" cy="40.6" r="12.5"/>
      <path class="st14" d="M53.3,53.6c-7.2,0-13-5.8-13-13s5.8-13,13-13,13,5.8,13,13-5.8,13-13,13ZM53.3,28.6c-6.6,0-12,5.4-12,12s5.4,12,12,12,12-5.4,12-12-5.4-12-12-12Z"/>
    </g>
    <path class="st8" d="M49.3,80.7"/>
    <path class="st9" d="M53.1,66.3"/>
    <path class="st8" d="M62,29.9"/>
    <path class="st5" d="M57.6,47.7"/>
    <g>
      <polygon class="st2" points="31 81.1 53.3 37.6 75.5 81.1 31 81.1"/>
      <polygon class="st7" points="57.4 45.7 53.3 37.6 49.1 45.7 46.4 51 50.5 59.1 53.3 53.8 56 59.1 60.1 51 57.4 45.7"/>
      <path class="st14" d="M53.7,37.4l-.5-.9-.5.9-22.6,44.2h46.1s-22.6-44.2-22.6-44.2ZM59.5,51l-3.6,7-1.1-2.1-1.1-2.1,1.8-3.5,1.8-3.5,2.2,4.2ZM53.7,39.7l3.1,6-1.8,3.5-1.3,2.5v-12.1ZM52.8,39.7v12.1l-1.3-2.5-1.8-3.5,3.1-6ZM49.1,46.8l1.8,3.5,1.8,3.5-1.1,2.1-1.1,2.1-3.6-7,2.2-4.2ZM46.4,52.1l3.6,7h0s3.3,6.4,3.3,6.4l3.3-6.4h0s3.6-7,3.6-7l14.6,28.5H31.8s14.6-28.5,14.6-28.5Z"/>
    </g>
    <path class="st8" d="M45,68.2"/>
    <g>
      <rect class="st14" x="14.6" y="63.5" width="38.3" height="1" transform="translate(-38.6 65) rotate(-62.9)"/>
      <rect class="st14" x="72.2" y="44.9" width="1" height="38.3" transform="translate(-21.2 40.1) rotate(-27.1)"/>
      <rect class="st14" x="52.8" y="12.9" width="1" height="15.2"/>
    </g>
    <g>
      <polygon class="st12" points="49 71.6 49 71.3 50.6 71 51.7 69.1 49.2 68.5 49.2 68 47.2 66.3 46.4 66.5 45.8 65.1 44.3 64.8 44.8 66.9 43.8 67.2 41.1 66.1 37.9 67.6 32.4 66.6 28.5 67.8 26.6 70 26.8 75.7 24.5 81.1 29.2 81.1 28.3 78.7 30.2 76.8 31 81.1 35.9 81.1 33.7 78.7 34 76 39.4 75 39 78.7 40.6 81.1 43.8 81.1 42.5 78.7 43.6 76.7 44.6 78.7 45.7 81.1 49.3 81 47.3 78.8 45.8 72.5 46.1 72 49 71.6"/>
      <line class="st14" x1="30.2" y1="76.8" x2="26.4" y2="75.8"/>
      <path class="st10" d="M36.2,75.4"/>
      <path class="st10" d="M43.5,75"/>
      <path class="st14" d="M51.8,68.7l-2.1-.5v-.4s-2.4-2-2.4-2l-.6.2-.5-1-.4-.3-1.4-.3-.6.6.4,1.7h-.4c0,.1-2.8-1-2.8-1l-3.2,1.5-5.5-1-4.2,1.3-2.2,2.4.3,5.8-2.5,6h6.2l-1.1-2.7,1-1v.4c0,0,.7,3.4.7,3.4h6.4s-2.8-3-2.8-3l.3-2.2,4.4-.8-.4,3.2,1.9,2.7h4.3l-1.6-2.9.5-1,1.9,3.8h5c0,0-2.7-3-2.7-3l-1.4-6h0c0-.1,3.1-.5,3.1-.5v-.3s1.2-.2,1.2-.2l.3-.3,1-1.9-.3-.7ZM45.4,65.5l.3.6h-.5c0,.1-.2-.7-.2-.7h.4ZM28.2,68.9l1.4,7.3-2.3-.6-.2-5.4,1.1-1.3ZM28.5,80.6h-3.2l1.7-4.1,2.2.6-1.5,1.6.8,2ZM34.7,80.6h-3.3s-.5-2.4-.5-2.4l-.5-2.5h0s-1.4-7.6-1.4-7.6l3-.9,1.5,8.7-.4,2.9,1.6,1.7ZM34.4,75.4l-1.4-8.2,4.5.8,1.5,6.6-4.6.8ZM42.9,80.6h-2.1l-1.4-2,.5-4.2h0s0,0,0,0h0s0,0,0,0l-1.5-6.6,2.6-1.2,2.2.9-.2,8.7-1.3,2.5,1.1,1.8ZM46.8,79l1.4,1.5h-2.2s-1.9-3.8-1.9-3.8h0c0,0,1.5-2.9,1.5-2.9l1.2,5.1ZM45.8,71.5l-1.6,3v-6.9c.1,0,2.4-.7,2.4-.7h0s0,0,0,0l.6-.2,1.6,1.4v.3s-.3,2.7-.3,2.7l-2.7.4ZM50.3,70.6h-.7c0,.1,0-1.5,0-1.5l1.3.3-.6,1.1Z"/>
    </g>
    <g>
      <path class="st1" d="M72.7,69.8h2.9l-6.3-12.4-6.3,12.4h2.9l-2.9,5.7h2.9l-2.9,5.7h12.7l-2.9-5.7h2.9l-2.9-5.7ZM72.8,81.1h-7l3.5-6.8,3.5,6.8Z"/>
      <polygon class="st0" points="65.8 81.1 69.3 74.3 72.8 81.1 65.8 81.1"/>
      <path class="st14" d="M76.5,76l-2.9-5.7h2.9l-7.2-14.1-7.2,14.1h2.9l-2.9,5.7h2.9v-.2c.1,0-2.9,5.9-2.9,5.9h14.4l-3-5.9v.2h3ZM73,69.3l-3.3-6.4v-3.3l5,9.7h-1.7ZM66.6,80.6l2.1-4.2v4.2h-2.1ZM69.8,80.6v-4.2l2.1,4.2h-2.1ZM63.8,69.3l5-9.7v3.3l-3.3,6.4h-1.7ZM63.8,74.9l5-9.7v3.3l-3.3,6.4h-1.7ZM68.8,70.8v3.2l-3.3,6.5h-1.6l5-9.7ZM73.1,80.6l-3.3-6.5v-3.2l5,9.7h-1.6ZM69.8,68.5v-3.3l5,9.7h-1.7l-3.3-6.4Z"/>
    </g>
    <g>
      <path class="st7" d="M28.8,83.9c.6,0,1.2,0,1.8-.1,4.3-.6,7-1.8,7.8-2.2h8.5c-1.1.3-2.6.8-4.5,1.3-.9.3-1.8.5-2.9.9-.9.2-1.5.4-1.6.5-8.2,2.4-13.5.4-16.3-1.5,2,.6,4.6,1.2,7.1,1.2Z"/>
      <path class="st7" d="M45,83.3c0,0-.1,0-.2,0,.6-.2,1.2-.4,1.7-.5,5.9-1.1,8.4,0,10.2.9.2.1.5.2.7.3.4.2.9.4,1.4.7.1,0,.4.3.9.5.6.3,1.2.7,1.8,1h-4.6c-.2-.1-4.1-2.7-11.9-2.9Z"/>
      <path class="st7" d="M60.4,84.4c1.4.2,3,.4,4.7.4s2.4,0,3.5-.3c3.9-.7,8.7-2.6,9.5-2.9h8.9c-1.6.5-6,1.9-9.8,2.8-9.3,2.3-14.7.8-16.9,0Z"/>
    </g>
  </g>
  <g>
    <path class="st7" d="M275.6,69.1l-2.5-4.9,1.5-2.9,1.2,2.4,1.2,2.4-1.5,2.9ZM277.2,64.7l-.9-1.8-1.2-2.4,2.1-4.2v8.4ZM277.9,56.3l2.1,4.2-1.2,2.4-.9,1.8v-8.4ZM277.9,66.2l1.2-2.4,1.2-2.4,1.5,2.9-2.5,4.9-1.5-2.9Z"/>
    <g>
      <path class="st7" d="M82.6,43.8v-9.8h1.8v9.7c0,1.8.9,2.9,2.2,2.9s2.2-1.1,2.2-2.9v-9.7h1.8v9.8c0,2.4-1.4,4.7-4.1,4.7s-4-2.3-4-4.7Z"/>
      <path class="st7" d="M103.9,34v1.8c-.3,0-.6,0-.9,0-3,0-5.5,2.4-5.5,5.4s2.4,5.5,5.5,5.5.6,0,.9,0v1.8c-.3,0-.6,0-.9,0-4,0-7.3-3.2-7.3-7.3s3.3-7.3,7.3-7.3.6,0,.9,0Z"/>
      <path class="st7" d="M110.8,46.6h4.9v1.8h-6.7v-14.4h1.8v12.6Z"/>
      <path class="st7" d="M130.9,48.4h-1.9l-.8-2.3h-5.2l-.8,2.3h-1.8l5.3-14.4,5.3,14.4ZM125.6,39l-1.9,5.4h3.9l-2-5.4Z"/>
      <path class="st7" d="M146.2,46.6h4.9v1.8h-6.7v-14.4h1.8v12.6Z"/>
      <path class="st7" d="M166.3,48.4h-1.9l-.8-2.3h-5.2l-.8,2.3h-1.8l5.3-14.4,5.3,14.4ZM161,39l-1.9,5.4h3.9l-2-5.4Z"/>
      <path class="st7" d="M177.1,34h1.9l-3.7,6.3,3.7,8.1h-1.9l-2.9-6.3-1.2,2v4.3h-1.8v-14.4h1.8v7l4.1-7Z"/>
      <path class="st7" d="M190.7,34v1.8h-4.9v6.8h4v1.8h-4v2.3h4.9v1.8h-6.7v-14.4h6.7Z"/>
      <path class="st7" d="M214.7,48.4h-1.9l-.8-2.3h-5.2l-.8,2.3h-1.8l5.3-14.4,5.3,14.4ZM209.4,39l-1.9,5.4h3.9l-2-5.4Z"/>
      <path class="st7" d="M222,34c3.1,0,5.8,1.9,5.8,5.2s-1.3,3.9-3.2,4.7l3.2,4.5h-2l-2.9-4.1c-.5,0-1,0-1.5,0v4.1h-1.8v-14.4h2.4ZM222,42.6c2.1,0,4-1.1,4-3.4s-1.9-3.4-4-3.4h-.6v6.8h.6Z"/>
      <path class="st7" d="M235.1,34c3.1,0,5.8,1.9,5.8,5.2s-1.3,3.9-3.2,4.7l3.2,4.5h-2l-2.9-4.1c-.5,0-1,0-1.5,0v4.1h-1.8v-14.4h2.4ZM235.1,42.6c2.1,0,4-1.1,4-3.4s-1.9-3.4-4-3.4h-.6v6.8h.6Z"/>
      <path class="st7" d="M260.1,41.2c0,4-3.3,7.3-7.3,7.3s-7.3-3.2-7.3-7.3,3.3-7.3,7.3-7.3,7.3,3.3,7.3,7.3ZM247.4,41.2c0,3,2.4,5.5,5.5,5.5s5.5-2.4,5.5-5.5-2.5-5.4-5.5-5.4-5.5,2.4-5.5,5.4Z"/>
      <path class="st7" d="M269.5,34l3,9.1,3-9.1h1.8l-4.8,14.5-2.1-6.4-2.2,6.4-4.8-14.5h1.8l3,9.1,1.2-3.7-1.8-5.3h1.9Z"/>
      <path class="st7" d="M290.5,34v14.4h-1.9v-3.1h-4.8v3.1h-1.8v-14.4h1.8v9.5h4.8v-9.5h1.9Z"/>
      <path class="st7" d="M302.4,34v1.8h-4.9v6.8h4v1.8h-4v2.3h4.9v1.8h-6.7v-14.4h6.7Z"/>
      <path class="st7" d="M317.6,48.4h-1.9l-.8-2.3h-5.2l-.8,2.3h-1.8l5.3-14.4,5.3,14.4ZM312.3,39l-1.9,5.4h3.9l-2-5.4Z"/>
      <path class="st7" d="M324.3,34c4,0,7.3,3.2,7.3,7.2s-3.2,7.2-7.3,7.2h-1.8v-14.4h1.8ZM329.7,41.2c0-3-2.4-5.4-5.5-5.4v10.9c3,0,5.5-2.4,5.5-5.5Z"/>
      <path class="st7" d="M346.9,46.6h4.9v1.8h-6.7v-14.4h1.8v12.6Z"/>
      <path class="st7" d="M369.8,41.2c0,4-3.3,7.3-7.3,7.3s-7.3-3.2-7.3-7.3,3.3-7.3,7.3-7.3,7.3,3.3,7.3,7.3ZM357.1,41.2c0,3,2.4,5.5,5.5,5.5s5.5-2.4,5.5-5.5-2.5-5.4-5.5-5.4-5.5,2.4-5.5,5.4Z"/>
      <path class="st7" d="M376.5,34c4,0,7.3,3.2,7.3,7.2s-3.2,7.2-7.3,7.2h-1.8v-14.4h1.8ZM382,41.2c0-3-2.4-5.4-5.5-5.4v10.9c3,0,5.5-2.4,5.5-5.5Z"/>
      <path class="st7" d="M396.8,34v1.8c-.3,0-.6,0-.9,0-3,0-5.5,2.4-5.5,5.4s2.4,5.5,5.5,5.5v-4.1h-1.8v-1.7h3.7v7.6h-1.8c-4,0-7.3-3.2-7.3-7.2s3.3-7.3,7.3-7.3.6,0,.9,0Z"/>
      <path class="st7" d="M409.5,34v1.8h-4.9v6.8h4v1.8h-4v2.3h4.9v1.8h-6.7v-14.4h6.7Z"/>
    </g>
    <g>
      <path class="st7" d="M94.7,62.8c0-2.8,1.9-4.4,4.5-4.4s2.9.8,2.9.8v1.2c-.1,0-1.4-.9-2.8-.9s-3.1,1.2-3.1,3.2,1.3,3.3,3,3.3,2.6-.9,2.6-.9l.6,1.1c-1,.7-2.1.9-3.1.9-2.5,0-4.5-1.6-4.5-4.4Z"/>
      <path class="st7" d="M110,67.2c-2.5,0-4.4-1.6-4.4-4.4s2-4.4,4.4-4.4,4.4,1.6,4.4,4.4-2,4.4-4.4,4.4ZM110,59.6c-1.6,0-3,1.2-3,3.2s1.4,3.2,3,3.2,3-1.2,3-3.2-1.4-3.3-3-3.3Z"/>
      <path class="st7" d="M120.1,61.3v5.8h-1.4v-8.8h.2l5.8,6v-5.7h1.4v8.7h-.2l-5.8-5.9Z"/>
      <path class="st7" d="M132.1,67.1h-1.4v-8.5h4.5v1.1h-3.2v2.2h2.2v1.1h-2.2v4.1Z"/>
      <path class="st7" d="M139.3,58.6h4.5v1.1h-3.1v2.2h2.3v1.1h-2.3v3h4.2l-.3,1.1h-5.3v-8.5Z"/>
      <path class="st7" d="M150.4,63.5h-.5v3.6h-1.4v-8.5h1.8c1.9,0,3.2.9,3.2,2.4s-.7,1.8-1.5,2c1.1.4,1.9,3.1,3.5,3.1l-.3,1.2c-2.7,0-2.8-3.7-4.9-3.7ZM150.5,59.6h-.6v2.8h.6c1,0,1.7-.5,1.7-1.4s-.7-1.4-1.7-1.4Z"/>
      <path class="st7" d="M159.1,58.6h4.5v1.1h-3.1v2.2h2.3v1.1h-2.3v3h4.2l-.3,1.1h-5.3v-8.5Z"/>
      <path class="st7" d="M169.8,61.3v5.8h-1.4v-8.8h.2l5.8,6v-5.7h1.4v8.7h-.2l-5.8-5.9Z"/>
      <path class="st7" d="M180.1,62.8c0-2.8,1.9-4.4,4.5-4.4s2.9.8,2.9.8v1.2c-.1,0-1.4-.9-2.8-.9s-3.1,1.2-3.1,3.2,1.3,3.3,3,3.3,2.6-.9,2.6-.9l.6,1.1c-1,.7-2.1.9-3.1.9-2.5,0-4.5-1.6-4.5-4.4Z"/>
      <path class="st7" d="M191.7,58.6h4.5v1.1h-3.1v2.2h2.3v1.1h-2.3v3h4.2l-.3,1.1h-5.3v-8.5Z"/>
      <path class="st7" d="M206.3,62.8c0-2.8,1.9-4.4,4.5-4.4s2.9.8,2.9.8v1.2c-.1,0-1.4-.9-2.8-.9s-3.1,1.2-3.1,3.2,1.3,3.3,3,3.3,2.6-.9,2.6-.9l.6,1.1c-1,.7-2.1.9-3.1.9-2.5,0-4.5-1.6-4.5-4.4Z"/>
      <path class="st7" d="M217.9,58.6h4.5v1.1h-3.1v2.2h2.3v1.1h-2.3v3h4.2l-.3,1.1h-5.3v-8.5Z"/>
      <path class="st7" d="M228.5,61.3v5.8h-1.4v-8.8h.2l5.8,6v-5.7h1.4v8.7h-.2l-5.8-5.9Z"/>
      <path class="st7" d="M242,67.1h-1.4v-7.4h-2.3l.3-1.1h5.5v1.1h-2.1v7.4Z"/>
      <path class="st7" d="M248.1,58.6h4.5v1.1h-3.1v2.2h2.3v1.1h-2.3v3h4.2l-.3,1.1h-5.3v-8.5Z"/>
      <path class="st7" d="M259.3,63.5h-.5v3.6h-1.4v-8.5h1.8c1.9,0,3.2.9,3.2,2.4s-.7,1.8-1.5,2c1.1.4,1.9,3.1,3.5,3.1l-.3,1.2c-2.7,0-2.8-3.7-4.9-3.7ZM259.3,59.6h-.6v2.8h.6c1,0,1.7-.5,1.7-1.4s-.7-1.4-1.7-1.4Z"/>
      <path class="st7" d="M292.3,67.1h-1.4v-8.5h4.5v1.1h-3.2v2.2h2.2v1.1h-2.2v4.1Z"/>
      <path class="st7" d="M304.6,67.1l-.8-1.8h-4l-.8,1.8h-1.4l4.2-8.8h.2l4.2,8.8h-1.4ZM300.2,64.2h3.1l-1.6-3.4-1.5,3.4Z"/>
      <path class="st7" d="M317,58.4h.2l1.5,8.7h-1.3l-1-5.5-2.4,3.5-2.4-3.5-1,5.5h-1.3l1.5-8.7h.1l3,4.6,3-4.6Z"/>
      <path class="st7" d="M322.9,58.6h1.4v8.5h-1.4v-8.5Z"/>
      <path class="st7" d="M328.9,58.6h1.4v7.4h3.5l-.3,1.1h-4.6v-8.5Z"/>
      <path class="st7" d="M341.9,58.6h1.5l-3.3,5.3v3.3h-1.4v-3.2l-3.3-5.3h1.5l2.5,4.2,2.5-4.2Z"/>
      <path class="st7" d="M354.5,63.5h-.5v3.6h-1.4v-8.5h1.8c1.9,0,3.2.9,3.2,2.4s-.7,1.8-1.5,2c1.1.4,1.9,3.1,3.5,3.1l-.3,1.2c-2.7,0-2.8-3.7-4.9-3.7ZM354.6,59.6h-.6v2.8h.6c1,0,1.7-.5,1.7-1.4s-.7-1.4-1.7-1.4Z"/>
      <path class="st7" d="M363.3,58.6h4.5v1.1h-3.1v2.2h2.3v1.1h-2.3v3h4.2l-.3,1.1h-5.3v-8.5Z"/>
      <path class="st7" d="M374.9,59.6c-.7,0-1.4.3-1.4,1,0,1.7,4.1,1.2,4.1,4.1s-1.2,2.5-2.9,2.5-1.8-.2-2.9-.9l.6-1c.7.5,1.5.8,2.3.8s1.6-.6,1.6-1.4c0-1.9-4.1-1.4-4.1-4.1s1.1-2.2,2.7-2.2,1.8.4,2.3.8v1.2c-.9-.6-1.6-.9-2.3-.9Z"/>
      <path class="st7" d="M385.7,67.2c-2.5,0-4.4-1.6-4.4-4.4s2-4.4,4.4-4.4,4.4,1.6,4.4,4.4-2,4.4-4.4,4.4ZM385.7,59.6c-1.6,0-3,1.2-3,3.2s1.4,3.2,3,3.2,3-1.2,3-3.2-1.4-3.3-3-3.3Z"/>
      <path class="st7" d="M396.3,63.5h-.5v3.6h-1.4v-8.5h1.8c1.9,0,3.2.9,3.2,2.4s-.7,1.8-1.5,2c1.1.4,1.9,3.1,3.5,3.1l-.3,1.2c-2.7,0-2.8-3.7-4.9-3.7ZM396.3,59.6h-.6v2.8h.6c1,0,1.7-.5,1.7-1.4s-.7-1.4-1.7-1.4Z"/>
      <path class="st7" d="M407.1,67.1h-1.4v-7.4h-2.3l.3-1.1h5.5v1.1h-2.1v7.4Z"/>
    </g>
  </g>
</svg>