<?xml version="1.0" encoding="UTF-8"?>
<svg id="LAL_x5F_Logo_x5F_Arrowhead_x5F_Horiz_x5F_Green" xmlns="http://www.w3.org/2000/svg" version="1.1" viewBox="0 0 396 54">
  <!-- Generator: Adobe Illustrator 30.3.0, SVG Export Plug-In . SVG Version: 2.1.3 Build 182)  -->
  <defs>
    <style>
      .st0 {
        stroke: #51534a;
        stroke-miterlimit: 10;
        stroke-width: .1px;
      }

      .st0, .st1 {
        fill: #51534a;
      }
    </style>
  </defs>
  <g>
    <path class="st0" d="M54,36.2c-2.6,0-4.1-2.2-4.1-4.7v-11.3h1.8v11.5c0,1.7,1.1,2.7,2.3,2.7s2.3-1.1,2.3-2.7v-11.5h1.8v11.3c0,2.4-1.6,4.7-4.1,4.7Z"/>
    <path class="st0" d="M72,20.2v1.8c-.3,0-.6,0-.9,0-3.5,0-6.2,2.8-6.2,6.2s2.8,6.2,6.2,6.2.6,0,.9,0v1.8c-.3,0-.6,0-.9,0-4.4,0-8-3.6-8-8s3.6-8,8-8,.6,0,.9,0Z"/>
    <path class="st0" d="M78.8,20.2v14.2h5.1v1.7h-7v-15.9h1.8Z"/>
    <path class="st0" d="M96.7,33.8h-5.6l-.8,2.3h-1.8l5.4-16,5.4,16h-1.8l-.8-2.3ZM96.2,32.1l-2.2-6.6-2.2,6.6h4.5Z"/>
    <path class="st0" d="M114.4,20.2v14.2h5.1v1.7h-7v-15.9h1.8Z"/>
    <path class="st0" d="M132.3,33.8h-5.6l-.8,2.3h-1.8l5.4-16,5.4,16h-1.8l-.8-2.3ZM131.8,32.1l-2.2-6.6-2.2,6.6h4.5Z"/>
    <path class="st0" d="M141.6,20.2v8.7l4.6-8.7h1.8l-3.9,7.3,3.9,8.6h-1.9l-3-6.7-1.5,2.9v3.9h-1.8v-15.9h1.8Z"/>
    <path class="st0" d="M159.8,20.2v1.7h-5.1v8.5h4.3v1.7h-4.3v2.3h5.1v1.7h-7v-15.9h7Z"/>
    <path class="st0" d="M181.2,33.8h-5.6l-.8,2.3h-1.8l5.4-16,5.4,16h-1.8l-.8-2.3ZM180.7,32.1l-2.2-6.6-2.2,6.6h4.5Z"/>
    <path class="st0" d="M191.4,20.2c3.5,0,6,2.5,6,6s-1.3,4.4-3.2,5.4l3.2,4.6h-2.1l-2.7-4.1c-.7.1-1.4,0-2.1,0v4h-1.8v-15.9h2.8ZM191.4,30.4c2,0,4.2-1.3,4.2-4.2s-2.2-4.2-4.2-4.2h-1v8.5h1Z"/>
    <path class="st0" d="M205.1,20.2c3.5,0,6,2.5,6,6s-1.3,4.4-3.2,5.4l3.2,4.6h-2.1l-2.7-4.1c-.7.1-1.4,0-2.2,0v4h-1.8v-15.9h2.8ZM205.1,30.4c2,0,4.2-1.3,4.2-4.2s-2.2-4.2-4.2-4.2h-1v8.5h1Z"/>
    <path class="st0" d="M231.9,28.2c0,4.4-3.6,8-8,8s-8-3.6-8-8,3.6-8,8-8,8,3.6,8,8ZM217.6,28.2c0,3.4,2.8,6.2,6.2,6.2s6.2-2.8,6.2-6.2-2.8-6.2-6.2-6.2-6.2,2.8-6.2,6.2Z"/>
    <path class="st0" d="M250.1,20.2l-5.4,16-2.1-6.3-2.1,6.3-5.4-16h1.8l3.6,10.7,1.2-3.6-2.4-7.1h1.8l3.6,10.7,3.6-10.7h1.8Z"/>
    <path class="st0" d="M256.7,20.2v11.1h5.1v-11.1h1.8v15.9h-1.8v-3.1h-5.1v3.1h-1.8v-15.9h1.8Z"/>
    <path class="st0" d="M275.6,20.2v1.7h-5.1v8.5h4.3v1.7h-4.3v2.3h5.1v1.7h-7v-15.9h7Z"/>
    <path class="st0" d="M288.6,33.8h-5.6l-.8,2.3h-1.8l5.4-16,5.4,16h-1.8l-.8-2.3ZM288.1,32.1l-2.2-6.6-2.2,6.6h4.5Z"/>
    <path class="st0" d="M305.9,28.2c0,4.4-3.6,8-8,8h-1.8v-15.9h1.8c4.4,0,8,3.5,8,8ZM297.9,34.4c3.5,0,6.2-2.8,6.2-6.2s-2.8-6.2-6.2-6.2v12.5Z"/>
    <path class="st0" d="M321,20.2v14.2h5.1v1.7h-7v-15.9h1.8Z"/>
    <path class="st0" d="M345.7,28.2c0,4.4-3.6,8-8,8s-8-3.6-8-8,3.6-8,8-8,8,3.6,8,8ZM331.4,28.2c0,3.4,2.8,6.2,6.2,6.2s6.2-2.8,6.2-6.2-2.8-6.2-6.2-6.2-6.2,2.8-6.2,6.2Z"/>
    <path class="st0" d="M360.3,28.2c0,4.4-3.6,8-8,8h-1.8v-15.9h1.8c4.4,0,8,3.5,8,8ZM352.3,34.4c3.5,0,6.2-2.8,6.2-6.2s-2.8-6.2-6.2-6.2v12.5Z"/>
    <path class="st0" d="M373.2,36.1c-4.4,0-8-3.5-8-8s3.6-8,8-8,.6,0,.9,0v1.8c-.3,0-.6,0-.9,0-3.5,0-6.2,2.8-6.2,6.2s2.8,6.2,6.2,6.2v-4h-1.8v-1.7h3.6v7.5h-1.8Z"/>
    <path class="st0" d="M387,20.2v1.7h-5.1v8.5h4.3v1.7h-4.3v2.3h5.1v1.7h-7v-15.9h7Z"/>
  </g>
  <path class="st1" d="M16.2,45.6l-7.2-14.2,4.4-8.5,3.6,7.1,3.6,7.1-4.4,8.5ZM20.7,32.9l-2.6-5.1-3.6-7.1,6.2-12.2v24.4ZM22.7,8.4l6.2,12.2-3.6,7.1-2.6,5.1V8.4ZM22.8,37l3.6-7.1,3.6-7.1,4.4,8.5-7.2,14.2-4.4-8.5Z"/>
</svg>