<?xml version="1.0" encoding="utf-8"?>
<!-- Generator: Adobe Illustrator 28.0.0, SVG Export Plug-In . SVG Version: 6.00 Build 0)  -->
<svg version="1.1" id="Black_outline_-_knocked_out_lettering"
	 xmlns="http://www.w3.org/2000/svg" xmlns:xlink="http://www.w3.org/1999/xlink" x="0px" y="0px" viewBox="0 0 360 216"
	 style="enable-background:new 0 0 360 216;" xml:space="preserve">
<style type="text/css">
	.st0{fill:#3F2411;stroke:#3F2411;stroke-width:0.5774;}
	.st1{fill:#3F2411;stroke:#3F2411;stroke-width:0.3827;}
	.st2{fill:#3F2411;stroke:#3F2411;stroke-width:0.0383;}
	.st3{fill:#3F2411;stroke:#3F2411;stroke-width:0.4975;}
	.st4{fill:#3F2411;stroke:#3F2411;stroke-width:0.5934;}
	.st5{stroke:#3F2411;stroke-width:0.6094;}
	.st6{fill:#3F2411;stroke:#3F2411;stroke-width:0.6094;}
	.st7{stroke:#3F2411;stroke-width:0.5774;}
	.st8{fill:none;stroke:#3F2411;stroke-width:0.5774;}
	.st9{fill:#3F2411;stroke:#3F2411;stroke-width:0.5794;}
	.st10{stroke:#3F2411;stroke-width:0.5794;}
	.st11{fill:#3F2411;stroke:#3F2411;stroke-width:0.4992;}
	.st12{fill:#3F2411;stroke:#3F2411;stroke-width:0.0514;}
	.st13{fill:#3F2411;stroke:#3F2411;stroke-width:0.5955;}
	.st14{stroke:#3F2411;stroke-width:0.6115;}
	.st15{fill:#3F2411;stroke:#3F2411;stroke-width:0.6115;}
	.st16{fill:#3F2411;stroke:#3F2411;stroke-width:0.384;}
	.st17{fill:#3F2411;stroke:#3F2411;stroke-width:0.0384;}
	.st18{fill:none;stroke:#3F2411;stroke-width:0.5794;}
	.st19{fill:none;stroke:#3F2411;stroke-width:1.1377;stroke-miterlimit:10;}
	.st20{fill:none;stroke:#3F2411;stroke-width:1.1429;stroke-miterlimit:10;}
	.st21{fill:#3F2411;stroke:#000000;stroke-width:0.2108;}
	.st22{fill:#3F2411;stroke:#000000;stroke-width:0.2088;}
	.st23{fill:#3F2411;stroke:#3F2411;stroke-width:0.2108;}
	.st24{fill:#3F2411;stroke:#3F2411;stroke-width:0.15;}
	.st25{stroke:#000000;stroke-width:0.1705;}
	.st26{fill:#3F2411;stroke:#3F2411;stroke-width:0.2097;}
	.st27{fill:none;stroke:#3F2411;stroke-width:1.2648;}
	.st28{fill:#3F2411;}
</style>
<g>
	<g>
		<g>
			<polygon class="st0" points="136.2,83.34 137.3,83.34 137.3,106.55 135.27,106.55 135.27,105.53 136.2,105.53 136.2,90.51 			"/>
		</g>
		<rect x="128.87" y="83.24" class="st1" width="1.21" height="6.08"/>
		<polygon class="st2" points="130.23,106.82 127.61,106.82 127.61,105.38 129.02,105.38 129.02,91.44 134.06,91.44 134.06,92.8 
			130.23,92.8 		"/>
		<rect x="113.91" y="84.53" class="st2" width="2.5" height="1.29"/>
		<g>
			<polygon class="st0" points="122.36,84.28 122.36,83.34 123.52,83.34 123.52,85.37 119.86,85.37 119.86,106.55 117.85,106.55 
				117.85,105.58 119,105.58 119,85.37 119,84.28 			"/>
		</g>
		<path class="st3" d="M103.92,90.78h-0.75h-1.19l0.03-6.59l2.27,0.02c0.38,0.02,1.85,0.39,2.58,1.6c0.36,0.6,0.5,1.78,0.4,2.25
			c-0.1,0.47-0.28,0.91-0.54,1.28c-0.26,0.37-0.59,0.68-0.9,0.9c-0.63,0.45-1.16,0.52-1.16,0.52
			C104.19,90.78,103.92,90.78,103.92,90.78z M103.21,90.78l0.98,0c0.48,0,1.43-0.38,1.63-0.52c0.5-0.37,1.33-1.25,1.43-1.9
			c0.04-0.27,0.01-1.66,0.01-1.66c-0.05-0.36-0.37-0.83-0.37-0.83s-1.01-0.48-1.7-0.46l-1.99,0V90.78z"/>
		<path class="st0" d="M104.87,92.75c0,0,2.42-0.23,3.9-2.64c0.51-0.83,0.84-2.62,0.48-3.82c-0.39-1.29-1.55-2.59-0.4-1.44
			c1.03,1.03,1.59,2.22,1.62,3.63c0.03,1.26-0.31,2.36-1.01,3.29c-0.96,1.26-2.17,1.98-3.61,2.14l5.39,12.63h-2.19l-0.47-1.1h1.39"
			/>
		<polyline class="st0" points="102.2,92.78 103.15,94.32 103.15,106.55 101.12,106.55 101.12,105.7 102.02,105.7 102.02,92.78 
			102.2,92.78 		"/>
		<path class="st4" d="M81.46,86.1c-2.61,1.19-4.61,3.45-5.35,5.76c-1.73,5.47,1.65,9.15,1.65,9.15c-3.26-2.75-3.11-9.63-1.98-11.33
			c2.06-3.09,3.6-5.15,8.3-5.15c0.69,0,1.87,0.11,3.3,0.55c2.19,0.67,4.14,2.62,4.14,2.62c-0.99-0.86-1.36-1.26-2.64-1.77
			C85.75,84.69,82.91,85.43,81.46,86.1z"/>
		<path class="st5" d="M91.92,85.45"/>
		<path class="st6" d="M92.85,86.18c0.04,0.03,0.03,0.03,0.07,0.06c0.28,0.23,0.36,0.32,0.61,0.58c2.05,2.09,3.32,4.96,3.32,8.12
			c0,6.41-5.2,11.6-11.62,11.6c-3.32,0-6.31-1.39-8.42-3.61c-0.37-0.39-0.6-0.44-0.91-0.87c0,0,2.1,3.07,6.78,3.33
			c4.83,0.26,5.43,0.29,9.08-2.68c3.78-3.07,3.94-4.4,4.2-8.93c0,0-0.28-3.24-0.78-4.29c-0.5-1.05-1.18-2.18-1.18-2.18L92.85,86.18z
			"/>
		<g>
			<polygon class="st0" points="68.2,83.34 69.35,83.34 69.35,106.55 67.34,106.55 67.34,105.62 68.2,105.62 68.2,91.79 			"/>
			<path class="st7" d="M67.34,88.42"/>
			<polygon class="st0" points="66.19,90.96 59.36,86.02 59.36,106.55 57.33,106.55 57.33,105.39 58.24,105.39 58.24,85.25 
				59.36,86.02 			"/>
		</g>
		<path class="st8" d="M66.2,82.19h2.01v23.21H66.2V90.65l-7.98-5.77v20.53h-2.03V82.19h1.76l8.26,5.98V82.19z"/>
		<path class="st8" d="M78.26,83.76c1.78-1.05,3.72-1.57,5.83-1.57c2.11,0,4.05,0.52,5.83,1.57c1.78,1.05,3.19,2.46,4.23,4.25
			s1.56,3.74,1.56,5.84c0,2.09-0.52,4.02-1.56,5.8c-1.04,1.77-2.45,3.18-4.23,4.21c-1.78,1.03-3.72,1.55-5.83,1.55
			c-2.11,0-4.05-0.52-5.83-1.55c-1.78-1.03-3.19-2.43-4.23-4.21c-1.04-1.77-1.56-3.71-1.56-5.8c0-2.11,0.52-4.05,1.56-5.84
			S76.48,84.8,78.26,83.76z M77.32,100.59c1.87,1.86,4.13,2.8,6.78,2.8c2.65,0,4.91-0.93,6.79-2.8c1.88-1.86,2.82-4.11,2.82-6.74
			c0-2.66-0.94-4.94-2.82-6.82c-1.88-1.89-4.14-2.83-6.79-2.83c-2.65,0-4.91,0.94-6.78,2.83c-1.87,1.89-2.81,4.16-2.81,6.82
			C74.51,96.48,75.44,98.73,77.32,100.59z"/>
		<path class="st8" d="M104.71,92.77l5.39,12.63h-2.19l-5.39-12.61H102v12.61h-2.03V82.19h3.99c1.44,0,2.69,0.5,3.74,1.51
			c1.05,1.01,1.59,2.22,1.62,3.63c0.03,1.26-0.31,2.36-1.01,3.29C107.35,91.89,106.15,92.6,104.71,92.77z M102,90.78h2.03
			c0.9,0,1.67-0.32,2.31-0.97c0.64-0.65,0.96-1.42,0.96-2.32c0-0.9-0.32-1.67-0.96-2.31s-1.41-0.96-2.31-0.96H102V90.78z"/>
		<path class="st8" d="M113.03,82.19h9.34v2.03h-3.65v21.18h-2.01V84.22h-3.68V82.19z"/>
		<path class="st8" d="M134.12,82.19h2.03v23.21h-2.03V91.37h-5.3v14.03h-2.03V82.19h2.03v7.17h5.3V82.19z"/>
		<g>
			<g>
				<polygon class="st9" points="131.23,112.15 136.13,112.15 136.13,111.27 137.16,111.27 137.16,113.31 132.22,113.31 
					132.22,117.22 131.23,117.22 				"/>
			</g>
			<g>
				<polygon class="st9" points="134.62,118.38 135.59,118.38 135.59,120.41 132.22,120.41 132.22,131.22 131.26,131.22 
					131.26,119.32 134.62,119.32 				"/>
			</g>
			<g>
				<polygon class="st9" points="136.13,133.53 136.13,132.52 137.16,132.52 137.16,134.54 130.19,134.54 130.19,133.53 				"/>
			</g>
		</g>
		<g>
			<path class="st10" d="M64.1,111.4"/>
		</g>
		<g>
			<path class="st9" d="M67.24,111.87c0.22,0.15,0.44,0.32,0.64,0.52c0.75,0.75,1.12,1.66,1.12,2.73v0.41h-2.01v-0.41
				c0-0.25-0.05-0.48-0.14-0.69c-0.05-0.11,1.08,0.01,1.01-0.09"/>
		</g>
		<path class="st9" d="M58.69,128.08c-0.14-1.15-0.49-1.71-0.49-2.32c0-0.3,0-0.48,0-0.48h1.16v1.58c0,1.23,0.34,2.32,1.02,3.27
			c0.05,0.07,0.13,0.14,0.18,0.21"/>
		<path class="st10" d="M68.17,121.59c-0.49-0.42-1.04-0.81-1.68-1.18c-0.11-0.06-0.27-0.16-0.5-0.28c-0.23-0.13-0.4-0.22-0.52-0.28
			l-0.14-0.09c-1.61-0.89-2.63-1.59-3.06-2.11c-0.03-0.03-0.05-0.07-0.08-0.1c-0.03-0.04-0.07-0.08-0.1-0.13
			c-0.05-0.06-0.11-0.16-0.15-0.22"/>
		<g>
			<path class="st9" d="M62.36,114.66c-0.12-0.44-0.13-1.37,0.12-1.69c0.6-0.8,1.89-0.78,1.89-0.78c0.72,0.19,1.41,1.23,1.37,1.21
				c-0.17-0.08-0.38-0.09-0.58-0.09c-0.5,0-0.92,0.18-1.28,0.53c-0.35,0.35-0.53,0.78-0.53,1.28l-0.02,0.34l-0.01,0.16
				C63.31,115.62,62.44,114.93,62.36,114.66z"/>
		</g>
		<g>
			<path class="st9" d="M68.92,119.4c0.03,0.02,0.27,0.3,0.3,0.32c0.22,0.16,0.69,0.67,0.89,0.87c1.77,1.71,2.65,3.75,2.65,6.12
				c0,2.14-0.76,3.99-2.27,5.53c-1.52,1.55-3.33,2.32-5.44,2.32c-2.13,0-3.94-0.75-5.44-2.25c-0.75-0.75,0.55,0.27,1.85,0.71
				c1.57,0.53,2.67,0.35,3.46,0.35c1.55,0,3.47-1.1,4.59-2.26c1.12-1.16,2.11-3.17,2.11-4.74c0,0,0.05-0.73-0.02-1.56
				c-0.06-0.71-0.24-1.5-0.35-1.92c-0.05-0.21-0.26-0.7-0.53-1.13c-0.27-0.41-0.13-0.37-0.43-0.78
				C69.8,120.32,68.92,119.4,68.92,119.4z"/>
		</g>
		<path class="st11" d="M118.49,118.73h-0.75h-1.19l0.03-6.61l2.28,0.02c0.38,0.02,1.86,0.39,2.59,1.61c0.36,0.6,0.51,1.79,0.4,2.26
			c-0.1,0.47-0.28,0.91-0.54,1.28c-0.27,0.37-0.59,0.68-0.91,0.91c-0.63,0.45-1.16,0.53-1.16,0.53
			C118.76,118.73,118.49,118.73,118.49,118.73z M117.78,118.73l0.98,0c0.48,0,1.44-0.38,1.64-0.53c0.5-0.37,1.33-1.25,1.43-1.9
			c0.04-0.27,0.01-1.66,0.01-1.66c-0.05-0.36-0.37-0.83-0.37-0.83s-1.01-0.48-1.7-0.46l-1.99,0V118.73z"/>
		<rect x="116.42" y="112.11" class="st12" width="1.58" height="6.78"/>
		<path class="st9" d="M119.46,120.7c0,0,2.43-0.23,3.92-2.65c0.51-0.83,0.84-2.63,0.48-3.83c-0.39-1.3-1.56-2.6-0.4-1.44
			c1.03,1.03,1.6,2.23,1.63,3.64c0.03,1.27-0.31,2.37-1.02,3.3c-0.97,1.27-2.17,1.98-3.62,2.15l5.41,12.68h-2.2l-0.47-1.1l1.39,0"/>
		<polyline class="st9" points="116.79,120.73 117.74,122.28 117.74,134.54 115.7,134.54 115.7,133.7 116.6,133.7 116.6,120.73 
			116.79,120.73 		"/>
		<path class="st13" d="M96.23,114.01c-2.62,1.2-4.63,3.46-5.37,5.78c-1.74,5.49,1.66,9.19,1.66,9.19
			c-3.27-2.76-3.12-9.67-1.99-11.37c2.06-3.1,3.62-5.17,8.33-5.17c0.69,0,1.88,0.11,3.31,0.55c2.2,0.67,4.16,2.63,4.16,2.63
			c-0.99-0.86-1.37-1.27-2.65-1.77C100.53,112.61,97.69,113.35,96.23,114.01z"/>
		<path class="st14" d="M106.72,113.36"/>
		<path class="st15" d="M107.67,114.1c0.04,0.03,0.03,0.03,0.07,0.06c0.28,0.23,0.36,0.32,0.61,0.58c2.06,2.1,3.33,4.98,3.33,8.15
			c0,6.43-5.22,11.65-11.66,11.65c-3.33,0-6.33-1.39-8.45-3.63c-0.37-0.39-0.6-0.44-0.92-0.87c0,0,2.11,3.08,6.8,3.34
			c4.85,0.26,5.45,0.29,9.11-2.69c3.79-3.08,3.95-4.42,4.21-8.96c0,0-0.28-3.25-0.79-4.3c-0.5-1.05-1.19-2.19-1.19-2.19
			L107.67,114.1z"/>
		<g>
			<polygon class="st9" points="84.12,111.18 85.22,111.18 85.22,134.47 83.18,134.47 83.18,133.45 84.12,133.45 84.12,118.38 			
				"/>
		</g>
		<rect x="76.76" y="111.08" class="st16" width="1.21" height="6.1"/>
		<polygon class="st17" points="78.13,134.74 75.5,134.74 75.5,133.3 76.92,133.3 76.92,119.31 81.97,119.31 81.97,120.68 
			78.13,120.68 		"/>
		<path class="st18" d="M66.33,117.5c3.52,2.04,5.27,4.72,5.27,8.06c0,2.14-0.76,3.99-2.27,5.53s-3.33,2.32-5.44,2.32
			c-2.13,0-3.94-0.75-5.44-2.25c-1.5-1.5-2.25-3.32-2.25-5.44v-1.58h2.01v1.58c0,1.57,0.55,2.91,1.66,4.02
			c1.11,1.11,2.45,1.66,4.02,1.66c1.55,0,2.89-0.58,4.01-1.74s1.67-2.53,1.67-4.1c0-2.57-1.41-4.66-4.23-6.29
			c-0.11-0.06-0.27-0.16-0.5-0.28c-0.23-0.13-0.4-0.22-0.52-0.28l-0.14-0.09c-1.61-0.89-2.63-1.59-3.06-2.11
			c-0.65-0.78-0.97-1.63-0.97-2.54c0-1.07,0.37-1.98,1.12-2.73c0.75-0.75,1.66-1.12,2.73-1.12c1.07,0,1.98,0.37,2.73,1.12
			c0.75,0.75,1.12,1.66,1.12,2.73v0.41h-2.01v-0.41c0-0.5-0.18-0.92-0.54-1.28s-0.79-0.53-1.29-0.53c-0.5,0-0.92,0.18-1.28,0.53
			c-0.35,0.35-0.53,0.78-0.53,1.28c0,0.44,0.17,0.85,0.5,1.24c0.26,0.3,1.09,0.85,2.49,1.63c0.09,0.06,0.27,0.16,0.53,0.31
			S66.18,117.4,66.33,117.5z"/>
		<path class="st18" d="M81.97,110.12h2.04v23.29h-2.04v-14.08h-5.32v14.08h-2.04v-23.29h2.04v7.2h5.32V110.12z"/>
		<path class="st18" d="M93.02,111.69c1.79-1.05,3.74-1.57,5.85-1.57s4.06,0.52,5.85,1.57c1.79,1.05,3.2,2.47,4.24,4.27
			c1.04,1.8,1.56,3.75,1.56,5.86c0,2.1-0.52,4.04-1.56,5.82s-2.46,3.19-4.24,4.22c-1.79,1.03-3.74,1.55-5.85,1.55
			s-4.06-0.52-5.85-1.55c-1.79-1.03-3.2-2.44-4.24-4.22s-1.56-3.72-1.56-5.82c0-2.11,0.52-4.07,1.56-5.86
			C89.82,114.16,91.23,112.74,93.02,111.69z M92.07,128.59c1.88,1.87,4.15,2.81,6.8,2.81s4.93-0.94,6.81-2.81
			c1.89-1.87,2.83-4.13,2.83-6.77c0-2.67-0.94-4.95-2.83-6.85s-4.16-2.84-6.81-2.84s-4.92,0.95-6.8,2.84
			c-1.88,1.89-2.82,4.18-2.82,6.85C89.25,124.46,90.19,126.72,92.07,128.59z"/>
		<path class="st18" d="M119.3,120.73l5.41,12.68h-2.2l-5.41-12.65h-0.52v12.65h-2.04v-23.29h4.01c1.45,0,2.7,0.51,3.76,1.52
			c1.06,1.01,1.6,2.23,1.63,3.64c0.03,1.27-0.31,2.37-1.02,3.3C121.96,119.85,120.75,120.57,119.3,120.73z M116.58,118.74h2.04
			c0.91,0,1.68-0.32,2.32-0.97c0.64-0.65,0.96-1.43,0.96-2.33c0-0.91-0.32-1.68-0.96-2.32c-0.64-0.64-1.41-0.96-2.32-0.96h-2.04
			V118.74z"/>
		<path class="st18" d="M136.14,112.15h-4.93v5.07h3.37v2.04h-3.37v12.11h4.93v2.01h-6.97v-23.27h6.97V112.15z"/>
		<g>
			<g id="Frame_00000024688010129556305010000015911040667486562968_">
				<g>
					<g>
						<g>
							<polyline class="st19" points="45.81,80.58 45.81,45.9 139.1,45.9 							"/>
							<path class="st19" d="M36,45.9V36h9.81v9.9H36z"/>
						</g>
					</g>
					<g>
						<polyline class="st19" points="314.19,80.58 314.19,45.9 221.71,45.9 						"/>
						<path class="st19" d="M324,45.9V36h-9.81v9.9H324z"/>
					</g>
					<g>
						<polyline class="st19" points="314.19,135.42 314.19,170.1 221.71,170.1 						"/>
						<path class="st19" d="M324,170.1v9.9h-9.81v-9.9H324z"/>
					</g>
					<g>
						<polyline class="st19" points="45.81,135.42 45.81,170.1 139.1,170.1 						"/>
						<path class="st19" d="M36,170.1v9.9h9.81v-9.9H36z"/>
					</g>
				</g>
				<g>
					<polyline class="st19" points="97.8,159.89 36,159.89 36,55.68 97.8,55.68 					"/>
					<polyline class="st19" points="263.02,159.89 324,159.89 324,55.68 263.02,55.68 					"/>
				</g>
				<g>
					<polyline class="st19" points="307.59,66.4 307.59,36 52.41,36 52.41,66.4 					"/>
					<polyline class="st19" points="307.59,149.6 307.59,180 52.41,180 52.41,149.6 					"/>
				</g>
			</g>
			<line class="st20" x1="108.13" y1="150.24" x2="252.69" y2="150.24"/>
			<line class="st20" x1="108.13" y1="66.49" x2="252.69" y2="66.49"/>
		</g>
	</g>
	<g>
		<path class="st21" d="M184.79,114.6h-5.04l-5.42,20.48h-4.62l0.47-1.84l3.25-0.01l5.33-21.03l1.01,0.09l4.15-0.28L184.79,114.6z
			 M184.57,94.62l-1.16-4.16l-1.24-4.07l0.63-2.46l13.07,51.14h-4.57l-0.68-1.7l3.55-0.05 M180.75,91.88"/>
		<g>
			<path class="st22" d="M182.26,104.82l-0.93,3.53l-1.52-0.1l1.47-5.81L182.26,104.82z"/>
		</g>
	</g>
	<g>
		<g>
			<g>
				<path class="st23" d="M218.09,83.93h1.52l-13.22,51.14l-1.27-4.93l3.73-10.44L218.09,83.93z"/>
			</g>
		</g>
	</g>
	<path class="st23" d="M257.47,101.17h-1.65h-2.61l0.07-14.51l5,0.05c0.84,0.04,4.08,0.85,5.69,3.53c0.8,1.32,1.11,3.92,0.88,4.97
		c-0.22,1.03-0.61,2-1.2,2.81c-0.58,0.82-1.3,1.49-1.99,1.99c-1.38,0.99-2.55,1.16-2.55,1.16
		C258.07,101.17,257.47,101.17,257.47,101.17z M254.23,101.17l3.84,0c1.05,0,3.15-0.83,3.59-1.16c1.1-0.82,2.92-2.75,3.14-4.18
		c0.09-0.6,0.03-3.65,0.03-3.65c-0.12-0.79-0.8-1.83-0.8-1.83s-2.22-1.05-3.74-1.01l-6.06,0.01V101.17z"/>
	<rect x="253.21" y="86.62" class="st24" width="1.76" height="14.89"/>
	<path class="st23" d="M259.24,105.48c0,0,5.71-0.98,8.97-6.3c1.12-1.82,1.02-6.13,0.23-8.77c-0.85-2.85-3.42-5.72-0.88-3.17
		c2.27,2.27,3.51,4.89,3.58,8c0.07,2.78-0.68,5.2-2.24,7.26c-2.12,2.78-4.77,4.36-7.95,4.72l11.88,27.83H268l-0.71-1.65l3.53-0.05"
		/>
	<polyline class="st23" points="253.84,105.61 254.98,108.1 254.98,135.04 250.51,135.04 250.51,133.17 253.3,133.17 253.26,106.9 
		253.3,105.57 	"/>
	<g>
		<g>
			<polygon class="st23" points="230.64,86.73 241.4,86.73 241.4,83.96 242.81,83.96 242.81,88.43 231.97,88.43 231.97,97.86 
				230.64,97.86 			"/>
		</g>
		<g>
			<polygon class="st23" points="238.09,99.56 239.36,99.56 239.36,104.04 231.96,104.04 231.96,128.61 230.71,128.61 
				230.71,102.48 238.09,102.48 			"/>
		</g>
		<g>
			<polygon class="st23" points="241.4,133.68 241.4,130.62 242.81,130.62 242.81,135.05 227.5,135.05 227.5,133.68 			"/>
		</g>
	</g>
	<rect x="148.04" y="86.73" class="st25" width="6.13" height="1.67"/>
	<g>
		<polygon class="st23" points="166.75,86.73 166.8,83.93 168.61,83.93 168.61,88.41 160.56,88.41 160.56,135.07 156.14,135.07 
			156.14,132.95 158.67,132.95 158.67,88.41 158.67,86.73 		"/>
	</g>
	<g>
		<polygon class="st23" points="304.71,83.91 306.41,83.91 306.41,135.05 301.99,135.05 301.99,133.85 304.71,133.85 304.71,102.55 
					"/>
		<path class="st23" d="M301.99,95.1"/>
		<polygon class="st23" points="299.44,100.71 284.39,89.83 284.39,135.05 279.92,135.05 279.92,133.35 282.77,133.35 282.77,88.12 
			284.39,89.83 		"/>
	</g>
	<polygon class="st26" points="206.42,115.93 205.34,115.93 196.91,83.93 197.99,83.93 	"/>
	<path class="st27" d="M146.41,82.25h20.57v4.47h-8.05v46.67h-4.42V86.72h-8.1V82.25z"/>
	<g>
		<path class="st28" d="M181.49,87.36l11.49,44.96h-2.7l-5.26-19.72l-0.27-1h-1.04h-4.45h-1.04l-0.27,1l-5.22,19.72H170
			L181.49,87.36 M181.49,81.92l-13.23,51.75h5.52l5.48-20.72h4.45l5.53,20.72h5.47L181.49,81.92L181.49,81.92z"/>
	</g>
	<g>
		<path class="st28" d="M217.19,83.47l-11.64,45.02l-11.59-45.02h2.1l8.31,31.89l1.18,4.53l1.19-4.52l8.36-31.89H217.19
			 M218.77,82.25h-4.62l-8.6,32.8L197,82.25h-4.62l13.17,51.14L218.77,82.25L218.77,82.25z"/>
	</g>
	<path class="st27" d="M241.12,86.72h-10.83v11.13h7.4v4.47h-7.4v26.59h10.83v4.42h-15.31V82.25h15.31V86.72z"/>
	<path class="st27" d="M259.26,105.56l11.88,27.83h-4.82l-11.88-27.78h-1.14v27.78h-4.47V82.25h8.8c3.18,0,5.93,1.11,8.25,3.33
		c2.32,2.22,3.51,4.89,3.58,8c0.07,2.78-0.68,5.2-2.24,7.26C265.09,103.62,262.44,105.19,259.26,105.56z M253.3,101.18h4.47
		c1.99,0,3.68-0.71,5.09-2.14s2.11-3.13,2.11-5.12s-0.7-3.69-2.11-5.09c-1.41-1.41-3.11-2.11-5.09-2.11h-4.47V101.18z"/>
	<path class="st27" d="M300.3,82.25h4.42v51.14h-4.42v-32.5L282.7,88.16v45.22h-4.47V82.25h3.88l18.19,13.17V82.25z"/>
	<g>
		<path class="st28" d="M181.47,103.84l1.02,4.07h-2.02L181.47,103.84 M181.46,99.24l-2.4,9.78h4.86L181.46,99.24L181.46,99.24z"/>
	</g>
</g>
</svg>
