<?xml version="1.0" encoding="utf-8"?>
<!-- Generator: Adobe Illustrator 26.5.0, SVG Export Plug-In . SVG Version: 6.00 Build 0)  -->
<svg version="1.1" id="Layer_1" xmlns="http://www.w3.org/2000/svg" xmlns:xlink="http://www.w3.org/1999/xlink" x="0px" y="0px"
	 viewBox="0 0 600 50" style="enable-background:new 0 0 600 50;" xml:space="preserve">
<style type="text/css">
	.st0{fill:none;stroke:#51534A;stroke-miterlimit:10;}
</style>
<g>
	<g>
		<polyline class="st0" points="140.5,29.8 140.5,35 122.9,24.8 140.5,14.9 140.5,19.8 		"/>
		<polyline class="st0" points="149.2,29.8 149.2,35 131.7,24.8 149.2,14.9 149.2,19.8 		"/>
		<polyline class="st0" points="149.2,29.9 140.5,24.8 149.3,19.8 		"/>
		<polyline class="st0" points="37.3,29.8 37.3,35 19.8,24.8 37.3,14.9 37.3,19.8 		"/>
		<polyline class="st0" points="46.1,29.8 46.1,35 28.6,24.8 46.1,14.9 46.1,19.8 		"/>
		<polyline class="st0" points="46.1,29.9 37.3,24.8 46.2,19.8 		"/>
		<polygon class="st0" points="115.9,18.2 104.2,24.8 115.8,31.6 		"/>
		<polygon class="st0" points="64.5,28.4 52.7,35 64.4,41.8 		"/>
		<polygon class="st0" points="64.5,8.2 52.7,14.8 64.4,21.6 		"/>
		<polygon class="st0" points="13.1,18.2 1.3,24.8 12.9,31.6 		"/>
		<polyline class="st0" points="82.1,29.8 82.1,35 64.5,24.8 82.1,14.9 82.1,19.8 		"/>
		<polyline class="st0" points="82.2,29.8 82.2,35 99.7,24.8 82.2,14.9 82.2,19.8 		"/>
		<polyline class="st0" points="82.1,29.9 73.3,24.8 82.2,19.8 		"/>
		<polyline class="st0" points="82.2,29.9 90.9,24.8 82.1,19.8 		"/>
		<polyline class="st0" points="158.1,29.8 158.1,35 175.6,24.8 158.1,14.9 158.1,19.8 		"/>
		<polyline class="st0" points="149.3,29.8 149.3,35 166.8,24.8 149.3,14.9 149.3,19.8 		"/>
		<polyline class="st0" points="149.3,29.9 158.1,24.8 149.2,19.8 		"/>
		<polyline class="st0" points="261.2,29.8 261.2,35 278.7,24.8 261.2,14.9 261.2,19.8 		"/>
		<polyline class="st0" points="252.4,29.8 252.4,35 269.9,24.8 252.4,14.9 252.4,19.8 		"/>
		<polyline class="st0" points="252.4,29.9 261.2,24.8 252.3,19.8 		"/>
		<polygon class="st0" points="182.6,18.2 194.4,24.8 182.7,31.6 		"/>
		<polygon class="st0" points="234,28.4 245.8,35 234.2,41.8 		"/>
		<polygon class="st0" points="234,8.2 245.8,14.8 234.2,21.6 		"/>
		<polygon class="st0" points="285.4,18.2 297.2,24.8 285.6,31.6 		"/>
		<polyline class="st0" points="216.4,29.8 216.4,35 234,24.8 216.4,14.9 216.4,19.8 		"/>
		<polyline class="st0" points="216.4,29.8 216.4,35 198.8,24.8 216.4,14.9 216.4,19.8 		"/>
		<polyline class="st0" points="216.5,29.9 225.2,24.8 216.4,19.8 		"/>
		<polyline class="st0" points="216.3,29.9 207.6,24.8 216.4,19.8 		"/>
		<line class="st0" x1="52.7" y1="35" x2="-0.2" y2="35"/>
		<line class="st0" x1="52.7" y1="14.8" x2="-0.2" y2="14.8"/>
		<line class="st0" x1="-0.3" y1="24.9" x2="2.3" y2="24.9"/>
		<line class="st0" x1="64.5" y1="35" x2="234.3" y2="35"/>
		<line class="st0" x1="245.8" y1="35" x2="299.6" y2="35"/>
		<line class="st0" x1="194.4" y1="24.8" x2="285.5" y2="24.8"/>
		<line class="st0" x1="297.2" y1="24.8" x2="299.7" y2="24.8"/>
		<line class="st0" x1="245.8" y1="14.8" x2="299.7" y2="14.8"/>
		<line class="st0" x1="234" y1="14.8" x2="64.5" y2="14.8"/>
		<line class="st0" x1="182.7" y1="24.8" x2="115.9" y2="24.8"/>
		<line class="st0" x1="104.2" y1="24.8" x2="12.6" y2="24.8"/>
	</g>
	<g>
		<polyline class="st0" points="458.9,29.8 458.9,35 476.5,24.8 458.9,14.9 458.9,19.8 		"/>
		<polyline class="st0" points="450.1,29.8 450.1,35 467.7,24.8 450.1,14.9 450.1,19.8 		"/>
		<polyline class="st0" points="450.2,29.9 458.9,24.8 450.1,19.8 		"/>
		<polyline class="st0" points="562,29.8 562,35 579.5,24.8 562,14.9 562,19.8 		"/>
		<polyline class="st0" points="553.2,29.8 553.2,35 570.7,24.8 553.2,14.9 553.2,19.8 		"/>
		<polyline class="st0" points="553.2,29.9 562,24.8 553.1,19.8 		"/>
		<polygon class="st0" points="483.4,18.2 495.2,24.8 483.6,31.6 		"/>
		<polygon class="st0" points="534.8,28.4 546.6,35 535,41.8 		"/>
		<polygon class="st0" points="534.8,8.2 546.6,14.8 535,21.6 		"/>
		<polygon class="st0" points="586.3,18.2 598,24.8 586.4,31.6 		"/>
		<polyline class="st0" points="517.2,29.8 517.2,35 534.8,24.8 517.2,14.9 517.2,19.8 		"/>
		<polyline class="st0" points="517.2,29.8 517.2,35 499.6,24.8 517.2,14.9 517.2,19.8 		"/>
		<polyline class="st0" points="517.3,29.9 526,24.8 517.2,19.8 		"/>
		<polyline class="st0" points="517.1,29.9 508.4,24.8 517.2,19.8 		"/>
		<polyline class="st0" points="441.3,29.8 441.3,35 423.7,24.8 441.3,14.9 441.3,19.8 		"/>
		<polyline class="st0" points="450.1,29.8 450.1,35 432.5,24.8 450.1,14.9 450.1,19.8 		"/>
		<polyline class="st0" points="450,29.9 441.3,24.8 450.1,19.8 		"/>
		<polyline class="st0" points="338.2,29.8 338.2,35 320.6,24.8 338.2,14.9 338.2,19.8 		"/>
		<polyline class="st0" points="346.9,29.8 346.9,35 329.4,24.8 346.9,14.9 346.9,19.8 		"/>
		<polyline class="st0" points="346.9,29.9 338.2,24.8 347,19.8 		"/>
		<polygon class="st0" points="416.7,18.2 405,24.8 416.6,31.6 		"/>
		<polygon class="st0" points="365.3,28.4 353.6,35 365.2,41.8 		"/>
		<polygon class="st0" points="365.3,8.2 353.6,14.8 365.2,21.6 		"/>
		<polygon class="st0" points="313.9,18.2 302.2,24.8 313.8,31.6 		"/>
		<polyline class="st0" points="382.9,29.8 382.9,35 365.4,24.8 382.9,14.9 382.9,19.8 		"/>
		<polyline class="st0" points="383,29.8 383,35 400.5,24.8 383,14.9 383,19.8 		"/>
		<polyline class="st0" points="382.9,29.9 374.2,24.8 383,19.8 		"/>
		<polyline class="st0" points="383,29.9 391.8,24.8 382.9,19.8 		"/>
		<line class="st0" x1="546.6" y1="35" x2="599.5" y2="35"/>
		<line class="st0" x1="546.6" y1="14.8" x2="599.5" y2="14.8"/>
		<line class="st0" x1="599.7" y1="24.9" x2="597" y2="24.9"/>
		<line class="st0" x1="534.8" y1="35" x2="365.1" y2="35"/>
		<line class="st0" x1="353.6" y1="35" x2="299.7" y2="35"/>
		<line class="st0" x1="405" y1="24.8" x2="313.8" y2="24.8"/>
		<line class="st0" x1="302.2" y1="24.8" x2="299.7" y2="24.8"/>
		<line class="st0" x1="353.6" y1="14.8" x2="299.7" y2="14.8"/>
		<line class="st0" x1="365.4" y1="14.8" x2="534.8" y2="14.8"/>
		<line class="st0" x1="416.6" y1="24.8" x2="483.4" y2="24.8"/>
		<line class="st0" x1="495.2" y1="24.8" x2="586.7" y2="24.8"/>
	</g>
</g>
</svg>
