<?xml version="1.0" encoding="utf-8"?>
<!-- Generator: Adobe Illustrator 27.3.1, SVG Export Plug-In . SVG Version: 6.00 Build 0)  -->
<svg version="1.1" id="Layer_1" xmlns="http://www.w3.org/2000/svg" xmlns:xlink="http://www.w3.org/1999/xlink" x="0px" y="0px"
	 viewBox="0 0 400 525" style="enable-background:new 0 0 400 525;" xml:space="preserve">
<style type="text/css">
	.st0{fill:#FFFFFF;}
	.st1{fill:none;stroke:#52544A;stroke-width:2;}
</style>
<rect class="st0" width="400" height="525"/>
<g>
	<g>
		<polyline class="st1" points="20.2,67.9 26.3,61.9 26.3,40.4 26.3,28.7 38.3,28.7 59.5,28.7 65.5,22.7 		"/>
		<polyline class="st1" points="380.7,67.9 374.6,61.9 374.6,40.4 374.6,28.7 362.6,28.7 341.5,28.7 335.4,22.7 		"/>
	</g>
	<g>
		<polyline class="st1" points="20.2,457.7 26.3,463.8 26.3,485.2 26.3,496.9 38.3,496.9 59.5,496.9 65.5,503 		"/>
		<polyline class="st1" points="380.7,457.7 374.6,463.8 374.6,485.2 374.6,496.9 362.6,496.9 341.5,496.9 335.4,503 		"/>
	</g>
	<polygon class="st1" points="380.7,40.4 380.7,485.2 362.6,485.2 362.6,503 38.3,503 38.3,485.2 20.2,485.2 20.2,40.4 38.3,40.4 
		38.3,22.7 362.6,22.7 362.6,40.4 	"/>
</g>
</svg>
