<?xml version="1.0" encoding="UTF-8"?>
<svg width="235px" height="100px" viewBox="0 0 235 100" version="1.1" xmlns="http://www.w3.org/2000/svg" xmlns:xlink="http://www.w3.org/1999/xlink">
    <!-- Generator: Sketch 43.2 (39069) - http://www.bohemiancoding.com/sketch -->
    <title>IACC_Logo_Certifed_Venue-Black</title>
    <desc>Created with Sketch.</desc>
    <defs></defs>
    <g id="Page-1" stroke="none" stroke-width="1" fill="none" fill-rule="evenodd">
        <g id="IACC_Logo_Certifed_Venue-Black" fill="#FFFFFF">
            <path d="M83.877,13.19 C83.877,12.559 84.444,11.992 85.075,11.992 L87.597,11.992 C88.228,11.992 88.795,12.559 88.795,13.19 L88.795,54.935 C88.795,55.565 88.228,56.133 87.597,56.133 L85.075,56.133 C84.444,56.133 83.877,55.565 83.877,54.935 L83.877,13.19" id="Fill-1"></path>
            <path d="M99.389,54.494 L118.56,12.055 C118.748,11.677 119.064,11.361 119.632,11.361 L120.262,11.361 C120.829,11.361 121.145,11.677 121.334,12.055 L140.378,54.494 C140.757,55.313 140.251,56.133 139.306,56.133 L136.784,56.133 C136.216,56.133 135.838,55.755 135.711,55.439 L131.045,45.035 L108.66,45.035 L104.055,55.439 C103.93,55.755 103.551,56.133 102.984,56.133 L100.462,56.133 C99.516,56.133 99.011,55.313 99.389,54.494 M129.343,41.125 C126.253,34.251 123.226,27.315 120.136,20.442 L119.632,20.442 L110.425,41.125 L129.343,41.125" id="Fill-2"></path>
            <path d="M170.332,11.362 C176.701,11.362 181.304,13.568 185.592,17.225 C186.097,17.73 186.16,18.487 185.656,18.992 L183.953,20.693 C183.449,21.324 182.944,21.262 182.313,20.63 C179.035,17.794 174.557,15.901 170.269,15.901 C160.306,15.901 152.676,24.288 152.676,34.062 C152.676,43.773 160.306,52.16 170.269,52.16 C175.756,52.16 178.971,49.953 182.313,47.431 C182.944,46.926 183.449,46.989 183.827,47.241 L185.718,48.944 C186.223,49.323 186.097,50.205 185.656,50.647 C181.367,54.809 175.944,56.763 170.332,56.763 C157.721,56.763 147.568,46.737 147.568,34.126 C147.568,21.514 157.721,11.362 170.332,11.362" id="Fill-3"></path>
            <path d="M218.51,11.362 C224.878,11.362 229.482,13.568 233.769,17.225 C234.275,17.73 234.337,18.487 233.833,18.992 L232.13,20.693 C231.626,21.324 231.121,21.262 230.491,20.63 C227.212,17.794 222.735,15.901 218.447,15.901 C208.484,15.901 200.854,24.288 200.854,34.062 C200.854,43.773 208.484,52.16 218.447,52.16 C223.933,52.16 227.149,49.953 230.491,47.431 C231.121,46.926 231.626,46.989 232.005,47.241 L233.896,48.944 C234.4,49.323 234.275,50.205 233.833,50.647 C229.545,54.809 224.122,56.763 218.51,56.763 C205.898,56.763 195.746,46.737 195.746,34.126 C195.746,21.514 205.898,11.362 218.51,11.362" id="Fill-4"></path>
            <path d="M0.069,91.141 C0.069,90.32 0.168,89.537 0.368,88.791 C0.567,88.045 0.848,87.352 1.211,86.711 C1.575,86.07 2.016,85.488 2.536,84.965 C3.055,84.441 3.633,83.996 4.27,83.629 C4.907,83.262 5.598,82.979 6.344,82.779 C7.09,82.58 7.873,82.48 8.694,82.48 C9.202,82.48 9.68,82.512 10.129,82.574 C10.578,82.637 10.994,82.721 11.377,82.826 C11.76,82.932 12.112,83.051 12.432,83.184 C12.752,83.316 13.041,83.453 13.299,83.594 C13.901,83.922 14.42,84.293 14.858,84.707 L13.686,86.488 C13.287,86.145 12.838,85.836 12.338,85.562 C12.127,85.445 11.891,85.332 11.629,85.223 C11.368,85.113 11.088,85.016 10.791,84.93 C10.494,84.844 10.178,84.773 9.842,84.719 C9.506,84.664 9.155,84.637 8.787,84.637 C7.834,84.637 6.973,84.805 6.204,85.141 C5.434,85.477 4.776,85.937 4.229,86.523 C3.682,87.109 3.26,87.797 2.963,88.586 C2.666,89.375 2.518,90.219 2.518,91.117 C2.518,92.023 2.668,92.881 2.969,93.689 C3.27,94.498 3.696,95.207 4.246,95.816 C4.797,96.426 5.459,96.91 6.233,97.27 C7.006,97.629 7.866,97.809 8.811,97.809 C9.209,97.809 9.588,97.777 9.948,97.715 C10.307,97.652 10.647,97.568 10.967,97.463 C11.287,97.357 11.586,97.24 11.864,97.111 C12.141,96.982 12.393,96.848 12.619,96.707 C13.151,96.387 13.623,96.02 14.037,95.605 L15.315,97.305 C14.838,97.812 14.272,98.262 13.616,98.652 C13.334,98.824 13.022,98.99 12.678,99.15 C12.334,99.31 11.959,99.453 11.553,99.578 C11.147,99.703 10.709,99.805 10.241,99.883 C9.772,99.961 9.272,100 8.741,100 C7.467,100 6.299,99.771 5.237,99.314 C4.174,98.857 3.26,98.23 2.495,97.434 C1.729,96.637 1.133,95.699 0.707,94.621 C0.282,93.543 0.069,92.383 0.069,91.141" id="Fill-5"></path>
            <polyline id="Fill-6" points="20.961 82.762 30.793 82.762 30.793 84.824 23.328 84.824 23.328 90.133 29.41 90.133 29.41 92.195 23.328 92.195 23.328 97.645 31.203 97.645 31.203 99.707 20.961 99.707 20.961 82.762"></polyline>
            <path d="M42.896,90.895 C43.357,90.895 43.773,90.824 44.144,90.684 C44.515,90.543 44.829,90.34 45.087,90.074 C45.345,89.809 45.544,89.486 45.685,89.107 C45.826,88.729 45.896,88.301 45.896,87.824 C45.896,87.199 45.781,86.668 45.55,86.23 C45.32,85.793 44.986,85.453 44.548,85.211 C44.439,85.156 44.318,85.104 44.185,85.053 C44.052,85.002 43.896,84.961 43.716,84.93 C43.536,84.898 43.326,84.873 43.083,84.854 C42.841,84.834 42.556,84.824 42.228,84.824 L39.486,84.824 L39.486,90.895 L42.896,90.895 Z M37.118,82.762 L42.298,82.762 C42.743,82.762 43.128,82.77 43.452,82.785 C43.777,82.801 44.062,82.826 44.308,82.861 C44.554,82.896 44.767,82.937 44.947,82.984 C45.126,83.031 45.298,83.086 45.462,83.148 C45.892,83.312 46.285,83.539 46.64,83.828 C46.995,84.117 47.296,84.457 47.542,84.848 C47.788,85.238 47.98,85.678 48.117,86.166 C48.253,86.654 48.322,87.176 48.322,87.73 C48.322,88.27 48.249,88.783 48.105,89.271 C47.96,89.76 47.755,90.205 47.49,90.607 C47.224,91.01 46.904,91.357 46.529,91.65 C46.154,91.943 45.736,92.164 45.275,92.313 L45.275,92.359 C45.314,92.398 45.357,92.457 45.404,92.535 C45.443,92.598 45.493,92.68 45.556,92.781 C45.618,92.883 45.693,93 45.779,93.133 L49.376,99.707 L46.693,99.707 L43.118,92.969 L39.486,92.969 L39.486,99.707 L37.118,99.707 L37.118,82.762 L37.118,82.762 Z" id="Fill-7"></path>
            <polyline id="Fill-8" points="58.527 84.824 52.714 84.824 52.714 82.762 66.706 82.762 66.706 84.824 60.906 84.824 60.906 99.707 58.527 99.707 58.527 84.824"></polyline>
            <polygon id="Fill-9" points="71.532 99.707 73.899 99.707 73.899 82.762 71.532 82.762"></polygon>
            <polyline id="Fill-10" points="80.916 82.762 90.244 82.762 90.244 84.824 83.284 84.824 83.284 90.391 89.213 90.391 89.213 92.465 83.284 92.465 83.284 99.707 80.916 99.707 80.916 82.762"></polyline>
            <polygon id="Fill-11" points="95.821 99.707 98.188 99.707 98.188 82.762 95.821 82.762"></polygon>
            <polyline id="Fill-12" points="105.204 82.762 115.037 82.762 115.037 84.824 107.572 84.824 107.572 90.133 113.654 90.133 113.654 92.195 107.572 92.195 107.572 97.645 115.447 97.645 115.447 99.707 105.204 99.707 105.204 82.762"></polyline>
            <path d="M126.811,97.645 C127.765,97.645 128.628,97.506 129.401,97.229 C130.175,96.951 130.837,96.539 131.388,95.992 C131.938,95.445 132.364,94.773 132.665,93.977 C132.966,93.18 133.116,92.258 133.116,91.211 C133.116,90.172 132.966,89.256 132.665,88.463 C132.364,87.67 131.938,87.004 131.388,86.465 C130.837,85.926 130.173,85.518 129.395,85.24 C128.618,84.963 127.757,84.824 126.811,84.824 L123.73,84.824 L123.73,97.645 L126.811,97.645 Z M121.363,82.762 L126.975,82.762 C128.272,82.762 129.448,82.951 130.503,83.33 C131.558,83.709 132.46,84.258 133.21,84.977 C133.96,85.695 134.54,86.58 134.95,87.631 C135.36,88.682 135.565,89.875 135.565,91.211 C135.565,92.555 135.36,93.754 134.95,94.809 C134.54,95.863 133.96,96.754 133.21,97.48 C132.46,98.207 131.558,98.76 130.503,99.139 C129.448,99.518 128.272,99.707 126.975,99.707 L121.363,99.707 L121.363,82.762 L121.363,82.762 Z" id="Fill-13"></path>
            <path d="M147.924,82.762 L150.49,82.762 L154.697,94.738 C154.775,94.965 154.851,95.215 154.926,95.488 C155,95.762 155.068,96.016 155.131,96.25 C155.201,96.523 155.271,96.797 155.342,97.07 L155.389,97.07 C155.451,96.797 155.521,96.523 155.6,96.25 C155.662,96.016 155.73,95.762 155.805,95.488 C155.879,95.215 155.959,94.965 156.045,94.738 L160.287,82.762 L162.807,82.762 L156.572,99.707 L154.193,99.707 L147.924,82.762" id="Fill-14"></path>
            <polyline id="Fill-15" points="167.656 82.762 177.488 82.762 177.488 84.824 170.023 84.824 170.023 90.133 176.105 90.133 176.105 92.195 170.023 92.195 170.023 97.645 177.898 97.645 177.898 99.707 167.656 99.707 167.656 82.762"></polyline>
            <path d="M183.813,82.762 L186.157,82.762 L193.692,93.777 C193.849,94.004 194.011,94.26 194.179,94.545 C194.347,94.83 194.501,95.098 194.641,95.348 C194.798,95.645 194.954,95.938 195.11,96.227 L195.157,96.227 C195.126,95.938 195.099,95.648 195.075,95.359 C195.052,95.109 195.032,94.842 195.016,94.557 C195.001,94.272 194.993,94.012 194.993,93.777 L194.993,82.762 L197.372,82.762 L197.372,99.707 L195.04,99.707 L187.481,88.715 C187.325,88.48 187.165,88.221 187.001,87.935 C186.837,87.65 186.684,87.383 186.544,87.133 C186.38,86.836 186.22,86.539 186.063,86.242 L186.016,86.242 C186.04,86.539 186.067,86.832 186.099,87.121 C186.114,87.371 186.132,87.639 186.151,87.924 C186.171,88.209 186.181,88.473 186.181,88.715 L186.181,99.707 L183.813,99.707 L183.813,82.762" id="Fill-16"></path>
            <path d="M204.132,82.762 L206.511,82.762 L206.511,93.707 C206.511,94.356 206.612,94.934 206.815,95.441 C207.018,95.949 207.306,96.379 207.677,96.73 C208.048,97.082 208.495,97.35 209.018,97.533 C209.542,97.717 210.128,97.809 210.776,97.809 C211.433,97.809 212.026,97.717 212.558,97.533 C213.089,97.35 213.544,97.08 213.923,96.725 C214.302,96.369 214.593,95.934 214.796,95.418 C214.999,94.902 215.1,94.316 215.1,93.66 L215.1,82.762 L217.479,82.762 L217.479,93.707 C217.479,94.652 217.317,95.512 216.993,96.285 C216.669,97.059 216.214,97.721 215.628,98.271 C215.042,98.822 214.339,99.248 213.518,99.549 C212.698,99.85 211.792,100 210.8,100 C209.815,100 208.913,99.85 208.093,99.549 C207.272,99.248 206.569,98.822 205.983,98.271 C205.397,97.721 204.942,97.059 204.618,96.285 C204.294,95.512 204.132,94.652 204.132,93.707 L204.132,82.762" id="Fill-17"></path>
            <polyline id="Fill-18" points="224.25 82.762 234.082 82.762 234.082 84.824 226.617 84.824 226.617 90.133 232.699 90.133 232.699 92.195 226.617 92.195 226.617 97.645 234.492 97.645 234.492 99.707 224.25 99.707 224.25 82.762"></polyline>
            <polyline id="Fill-19" points="58.642 25.083 58.642 42.813 43.294 51.737 27.945 42.995 27.945 25.09 43.294 16.229 44.636 17.062 44.636 26.785 30.672 34.844 30.697 31.617 41.873 25.172 41.873 20.266 30.691 26.719 30.697 41.382 43.266 48.593 55.874 41.277 55.874 26.715 44.634 20.162 44.636 17.062 58.642 25.083"></polyline>
            <polyline id="Fill-20" points="14.001 51.032 14.001 59.023 29.276 67.885 44.625 59.023 44.625 41.3 29.276 32.439 27.947 33.271 27.947 42.995 41.901 50.951 41.901 47.797 30.697 41.382 30.697 36.476 41.879 42.929 41.879 57.514 29.304 64.74 16.77 57.487 16.77 51.054 15.333 51.855 14.001 51.032"></polyline>
            <polyline id="Fill-21" points="30.697 36.476 27.938 34.907 27.938 41.388 16.769 47.841 16.769 42.935 27.949 36.482 27.949 34.905 26.519 34.092 14.007 41.322 14.007 51.045 15.333 51.878 30.697 43.017 30.697 36.476"></polyline>
            <polyline id="Fill-22" points="14.013 17.204 0 25.294 0 43.023 14.007 51.045 14.001 47.902 2.769 41.392 2.769 26.83 14.014 20.363 14.013 17.204"></polyline>
            <polyline id="Fill-23" points="44.634 17.062 44.634 9.235 29.362 0.373 14.014 9.235 14.014 26.958 30.693 36.476 30.704 25.263 16.737 17.197 16.737 20.423 27.942 26.876 27.942 31.782 16.759 25.329 16.759 10.744 29.334 3.518 41.866 10.771 41.866 17.055 43.294 16.229 44.634 17.062"></polyline>
        </g>
    </g>
</svg>