<svg xmlns="http://www.w3.org/2000/svg" viewBox="0 0 327.7 50"><defs><style>.cls-1{fill:#fff;}</style></defs><title>logo</title><g id="Layer_2" data-name="Layer 2"><g id="Layer_1-2" data-name="Layer 1"><g id="logo"><g id="_Group_" data-name=" Group "><g id="_Group_2" data-name=" Group 2"><path id="_Compound_Path_" data-name=" Compound Path " class="cls-1" d="M113.31,16.71h-3.93v4.7h-1.69V11.55h1.68v3.81h3.94V11.55H115v9.86h-1.68Z"/><path id="_Compound_Path_2" data-name=" Compound Path 2" class="cls-1" d="M122.24,17.5h-.93v3.91h-1.69V11.54h2.79a2.55,2.55,0,0,1,2.79,2.64A3.26,3.26,0,0,1,123.77,17l2.51,4.46h-2Zm-.93-4.6v3.24h.49a1.6,1.6,0,0,0,1.66-1.86c0-1.05-.6-1.41-1.3-1.41Z"/><path id="_Compound_Path_3" data-name=" Compound Path 3" class="cls-1" d="M142.09,20.26a4,4,0,0,1-3,1.33,3.13,3.13,0,0,1-3.4-2.84q0-.1,0-.2a3.27,3.27,0,0,1,1.79-2.79,3,3,0,0,1-1-2.08,2.45,2.45,0,0,1,2.57-2.32h0a3.31,3.31,0,0,1,2.1.79l-.65,1.11a2.53,2.53,0,0,0-1.33-.55.91.91,0,0,0-1,.93c0,.52.27.88,1.15,1.74l2.6,2.57a3.49,3.49,0,0,0-.4-2.33h-1.45l.57-1.27H145l-.58,1.27h-1.32A4.52,4.52,0,0,1,143,19L145,20.82l-1.54.82Zm-4.6-1.86a1.86,1.86,0,0,0,1.79,1.86,2.49,2.49,0,0,0,1.86-.93l-2.79-2.63a2,2,0,0,0-.86,1.72Z"/><path id="_Compound_Path_4" data-name=" Compound Path 4" class="cls-1" d="M156,17.69v3.72H154.3V11.55h2.47c2,0,3.28.93,3.28,2.92a3.33,3.33,0,0,1-3.45,3.21H156Zm0-4.83v3.57h.56a1.71,1.71,0,0,0,1.71-1.93,1.46,1.46,0,0,0-1.68-1.59Z"/><path id="_Compound_Path_5" data-name=" Compound Path 5" class="cls-1" d="M167.34,18h-2.68l-1.16,3.37h-1.67l3.79-9.87h1.27l3.49,9.87h-1.86Zm-2.17-1.37h1.76c-.29-.87-.57-1.73-.85-2.79-.3,1.07-.6,1.95-.91,2.8Z"/><path id="_Compound_Path_6" data-name=" Compound Path 6" class="cls-1" d="M177.52,21.41h-1.68V17.17L173,11.58H175l1.94,4L179,11.53h1.7l-3.14,5.59Z"/><path id="_Compound_Path_7" data-name=" Compound Path 7" class="cls-1" d="M186.89,17.5H186v3.91h-1.69V11.54h2.79a2.55,2.55,0,0,1,2.79,2.64A3.26,3.26,0,0,1,188.42,17l2.51,4.46h-2ZM186,12.9v3.24h.49a1.6,1.6,0,0,0,1.66-1.86c0-1.05-.6-1.41-1.3-1.41Z"/><path id="_Compound_Path_8" data-name=" Compound Path 8" class="cls-1" d="M193.85,16.31a4.69,4.69,0,1,1,9.38,0c0,2.91-1.78,5.28-4.65,5.28S193.85,19.22,193.85,16.31Zm1.81,0c0,1.86.79,3.92,2.9,3.92s2.9-2,2.9-3.92-.88-3.57-2.9-3.57S195.65,14.56,195.65,16.31Z"/><path id="_Compound_Path_9" data-name=" Compound Path 9" class="cls-1" d="M207.52,11.55h1.68v8.51h3.72v1.35h-5.4Z"/><path id="_Compound_Path_10" data-name=" Compound Path 10" class="cls-1" d="M216.55,11.55h1.68v8.51H222v1.35h-5.4Z"/><path id="_Compound_Path_11" data-name=" Compound Path 11" class="cls-1" d="M236.47,12.74c-2.06,0-3.3,1.55-3.3,3.72s1.49,3.81,3.3,3.81a3.94,3.94,0,0,0,2.33-.79l.71,1.14a5.46,5.46,0,0,1-3.11,1,4.83,4.83,0,0,1-5-5.14,5,5,0,0,1,5-5.08h.2a4.6,4.6,0,0,1,3,1.11l-.74,1.18A3.89,3.89,0,0,0,236.47,12.74Z"/><path id="_Compound_Path_12" data-name=" Compound Path 12" class="cls-1" d="M243.27,11.55h4.86V12.9h-3.18v2.64h3.13V16.9h-3.13v3.17h3.72v1.35h-5.4Z"/><path id="_Compound_Path_13" data-name=" Compound Path 13" class="cls-1" d="M253.9,14.31v7.1h-1.46V11.55h1.25c1.78,2.22,4.47,5.59,5.59,7.1v-7.1h1.46v9.86h-1.3C257.67,19.2,255,15.77,253.9,14.31Z"/><path id="_Compound_Path_14" data-name=" Compound Path 14" class="cls-1" d="M268.87,21.41h-1.68V12.9H264.3V11.55h7.45V12.9h-2.89Z"/><path id="_Compound_Path_15" data-name=" Compound Path 15" class="cls-1" d="M274.9,11.55h4.86V12.9h-3.18v2.64h3.13V16.9h-3.13v3.17h3.72v1.35h-5.4Z"/><path id="_Compound_Path_16" data-name=" Compound Path 16" class="cls-1" d="M286.74,17.5h-.93v3.91h-1.69V11.54h2.79a2.55,2.55,0,0,1,2.79,2.64A3.26,3.26,0,0,1,288.26,17l2.51,4.46h-2Zm-.93-4.6v3.24h.49A1.6,1.6,0,0,0,288,14.28c0-1.05-.6-1.41-1.3-1.41Z"/><path id="_Compound_Path_17" data-name=" Compound Path 17" class="cls-1" d="M112,35.09H109.3l-1.16,3.38h-1.67l3.79-9.87h1.27L115,38.47h-1.86Zm-2.12-1.37h1.76c-.29-.87-.57-1.73-.85-2.79C110.43,32,110.13,32.85,109.86,33.72Z"/><path id="_Compound_Path_18" data-name=" Compound Path 18" class="cls-1" d="M118.9,38.47V28.6H122c3.72,0,5.08,2.29,5.08,4.65,0,3.24-2,5.22-5.28,5.22Zm1.68-8.52v7.16h1.16c2.37,0,3.52-1.19,3.52-3.89A2.92,2.92,0,0,0,122,29.95Z"/><path id="_Compound_Path_19" data-name=" Compound Path 19" class="cls-1" d="M139.86,31.6c-.75,1.73-2.24,4.8-3.28,6.87h-.76c-.93-2-2.29-5-3-6.74v6.74h-1.46V28.6h1.69c1.15,2.49,2.22,4.86,3.3,7.38,1.21-2.52,2.4-4.9,3.63-7.38h1.5v9.87h-1.66Z"/><path id="_Compound_Path_20" data-name=" Compound Path 20" class="cls-1" d="M146.17,28.6h1.69v9.87h-1.69Z"/><path id="_Compound_Path_21" data-name=" Compound Path 21" class="cls-1" d="M153.9,31.35v7.11h-1.46V28.6h1.25c1.78,2.22,4.47,5.59,5.59,7.1V28.6h1.46v9.87h-1.3C157.67,36.25,155,32.82,153.9,31.35Z"/><path id="_Compound_Path_22" data-name=" Compound Path 22" class="cls-1" d="M165.33,28.6H167v9.87h-1.68Z"/><path id="_Compound_Path_23" data-name=" Compound Path 23" class="cls-1" d="M171.19,37.45l.76-1.15a3.28,3.28,0,0,0,2,.93,1.62,1.62,0,0,0,1.81-1.73c0-.93-.76-1.36-1.54-1.68a5.83,5.83,0,0,1-2-1.29,2.53,2.53,0,0,1,2.22-4.11,3.14,3.14,0,0,1,2.43,1.15l-.83.93a2.88,2.88,0,0,0-1.57-.76,1.06,1.06,0,0,0-1.19,1.09c0,.62.73,1,1.24,1.27,1.46.75,2.94,1.42,2.94,3.38s-1.59,3.13-3.51,3.13A4,4,0,0,1,171.19,37.45Z"/><path id="_Compound_Path_24" data-name=" Compound Path 24" class="cls-1" d="M184.75,38.47H183.1V29.95h-2.89V28.6h7.45v1.35h-2.89Z"/><path id="_Compound_Path_25" data-name=" Compound Path 25" class="cls-1" d="M193.43,34.55h-.93v3.92H190.8V28.58h2.79a2.55,2.55,0,0,1,2.79,2.64A3.26,3.26,0,0,1,195,34l2.51,4.46h-2Zm-.93-4.6v3.24H193a1.6,1.6,0,0,0,1.66-1.86c0-1.05-.6-1.41-1.3-1.41Z"/><path id="_Compound_Path_26" data-name=" Compound Path 26" class="cls-1" d="M205.15,35.09h-2.68l-1.16,3.38h-1.67l3.79-9.87h1.27l3.48,9.87h-1.86ZM203,33.72h1.76c-.29-.87-.57-1.73-.85-2.79A21.87,21.87,0,0,1,203,33.72Z"/><path id="_Compound_Path_27" data-name=" Compound Path 27" class="cls-1" d="M215.6,38.47h-1.66V29.95h-2.89V28.6h7.45v1.35h-2.89Z"/><path id="_Compound_Path_28" data-name=" Compound Path 28" class="cls-1" d="M221.64,28.6h1.69v9.87h-1.68Z"/><path id="_Compound_Path_29" data-name=" Compound Path 29" class="cls-1" d="M227.47,33.36a4.69,4.69,0,1,1,9.38,0c0,2.91-1.78,5.28-4.65,5.28S227.47,36.31,227.47,33.36Zm1.81,0c0,1.86.79,3.92,2.9,3.92s2.9-2,2.9-3.92-.88-3.57-2.9-3.57S229.28,31.65,229.28,33.36Z"/><path id="_Compound_Path_30" data-name=" Compound Path 30" class="cls-1" d="M242.62,31.35v7.11h-1.5V28.6h1.25c1.78,2.22,4.47,5.59,5.59,7.1V28.6h1.46v9.87h-1.3C246.38,36.25,243.68,32.82,242.62,31.35Z"/><path id="_Compound_Path_31" data-name=" Compound Path 31" class="cls-1" d="M256.43,34.7h11.92v.83H256.43Z"/><path id="_Compound_Path_32" data-name=" Compound Path 32" class="cls-1" d="M276.1,31.35v7.11h-1.46V28.6h1.25c1.78,2.22,4.47,5.59,5.59,7.1V28.6h1.46v9.87h-1.3C279.86,36.25,277.16,32.82,276.1,31.35Z"/><path id="_Compound_Path_33" data-name=" Compound Path 33" class="cls-1" d="M287.05,33.36a4.69,4.69,0,0,1,9.38,0c0,2.91-1.78,5.28-4.65,5.28S287.05,36.31,287.05,33.36Zm1.81,0c0,1.86.79,3.92,2.9,3.92s2.9-2,2.9-3.92-.88-3.57-2.9-3.57S288.86,31.65,288.86,33.36Z"/><path id="_Compound_Path_34" data-name=" Compound Path 34" class="cls-1" d="M303.37,34.55h-.93v3.92H300.7V28.58h2.79a2.55,2.55,0,0,1,2.79,2.64A3.26,3.26,0,0,1,304.85,34l2.51,4.46h-2Zm-.93-4.6v3.24h.49a1.6,1.6,0,0,0,1.66-1.86c0-1.05-.6-1.41-1.3-1.41Z"/><path id="_Compound_Path_35" data-name=" Compound Path 35" class="cls-1" d="M314.34,38.47h-1.66V29.95H309.8V28.6h7.45v1.35h-2.89Z"/><path id="_Compound_Path_36" data-name=" Compound Path 36" class="cls-1" d="M326,33.75h-3.93v4.71h-1.69V28.6H322v3.8H326V28.6h1.71v9.87H326Z"/></g></g><g id="_Group_3" data-name=" Group 3"><path id="_Path_" data-name=" Path " class="cls-1" d="M.09,30.72A22.81,22.81,0,0,1,0,28l1.3-14.65h4.8L4.8,28.14c-.29,3.2.93,5.48,4.17,5.48s5-2.33,5.28-5.17L15.6,13.35H20.4L19.08,28.24C18.54,34,14.73,38.3,8.57,38.3c-4.83,0-7.89-3.08-8.48-7.58"/><path id="_Path_2" data-name=" Path 2" class="cls-1" d="M22.35,25.77c.62-7,5.37-12.87,13.57-12.87a11.26,11.26,0,0,1,6.3,1.86l-.54,5.73a7.08,7.08,0,0,0-6.21-2.9c-5.1,0-7.9,3.54-8.3,8S29,33.54,34,33.54a9.18,9.18,0,0,0,6.84-3l-.53,6a13.79,13.79,0,0,1-6.69,1.86c-8.12,0-11.83-6-11.25-12.61"/><path id="_Path_3" data-name=" Path 3" class="cls-1" d="M46.06,13.36h4.78l-1.74,19.9H56c.48,0,2.11,0,2.56-.06,0,.24-.44,4.6-.44,4.6H43.9Z"/><path id="_Compound_Path_37" data-name=" Compound Path 37" class="cls-1" d="M71,22.48a6.27,6.27,0,0,0,.35-1h.08a5.51,5.51,0,0,0,.18,1c.26,1.11,2.13,7.3,2.13,7.3H67.7L71,22.48m1.23-10.24H71.9L58.79,37.8h5.09l1.86-3.88H75l1.15,3.88h5.07Z"/></g><g id="_Group_4" data-name=" Group 4"><rect id="_Path_4" data-name=" Path 4" class="cls-1" x="93.52" width="0.7" height="50"/></g></g></g></g></svg>
