<svg xmlns="http://www.w3.org/2000/svg" viewBox="0 0 280.48 29.49"><defs><style>.cls-1{fill:#5b7ea8;}</style></defs><title>Asset 1</title><g id="Layer_2" data-name="Layer 2"><g id="UCLA_Lake_Arrowhead_Conference_Center_Logo" data-name="UCLA Lake Arrowhead Conference Center Logo"><polygon class="cls-1" points="109.81 11.89 103.27 11.89 103.27 1.25 105.25 1.25 105.25 10.06 109.81 10.06 109.81 11.89"/><path class="cls-1" d="M123.68,11.89h-2.06l-1.35-3h-4l-1.28,3H113l4.57-10.7h1.37ZM117.1,7.08h2.34l-1.21-2.73Z"/><polygon class="cls-1" points="137.31 11.89 134.55 11.89 129.78 7.25 129.78 11.89 127.8 11.89 127.8 1.25 129.78 1.25 129.78 5.46 133.66 1.25 136.18 1.25 131.54 6.29 137.31 11.89"/><polygon class="cls-1" points="147.6 11.89 141.21 11.89 141.21 1.25 147.47 1.25 147.47 3.08 143.19 3.08 143.19 5.61 147.32 5.61 147.32 7.44 143.19 7.44 143.19 10.06 147.6 10.06 147.6 11.89"/><path class="cls-1" d="M168.06,11.89H166l-1.35-3h-4l-1.27,3h-2.06l4.57-10.7h1.37Zm-6.58-4.81h2.34l-1.22-2.73Z"/><path class="cls-1" d="M180.81,11.89h-2.39L177,9.69c-1.31-2-1.84-2.19-2.46-2.19h-.35v4.39h-2V1.25H175c2.21,0,3.59,1.19,3.59,3.1a2.75,2.75,0,0,1-1.45,2.53,9.91,9.91,0,0,1,1.93,2.56l0,.06c.4.64.65,1,1.25,1.82ZM174.2,5.67h.67a1.92,1.92,0,0,0,1.4-.43,1.27,1.27,0,0,0,.32-.95c0-.59-.21-1.27-1.72-1.27h-.67Z"/><path class="cls-1" d="M193.45,11.89h-2.4l-1.41-2.2c-1.31-2-1.84-2.19-2.46-2.19h-.35v4.39h-2V1.25h2.81c2.21,0,3.58,1.19,3.58,3.1a2.75,2.75,0,0,1-1.44,2.53,10,10,0,0,1,1.94,2.56c.43.7.68,1,1.29,1.88Zm-6.61-6.22h.67a1.91,1.91,0,0,0,1.4-.43,1.26,1.26,0,0,0,.32-.95c0-.59-.21-1.27-1.72-1.27h-.67Z"/><path class="cls-1" d="M201.79,12a5.46,5.46,0,1,1,0-10.91,5.4,5.4,0,0,1,5.71,5.45A5.41,5.41,0,0,1,201.79,12Zm0-9a3.51,3.51,0,0,0-3.66,3.59,3.67,3.67,0,0,0,7.35,0A3.52,3.52,0,0,0,201.82,3Z"/><polygon class="cls-1" points="222.53 11.98 221.89 11.98 218.75 4.15 215.57 11.98 214.94 11.98 210.63 1.25 212.65 1.25 215.26 7.78 217.89 1.25 219.62 1.25 222.26 7.77 224.84 1.25 226.85 1.25 222.53 11.98"/><polygon class="cls-1" points="240.1 11.89 238.12 11.89 238.12 7.49 232.98 7.49 232.98 11.89 231 11.89 231 1.25 232.98 1.25 232.98 5.66 238.12 5.66 238.12 1.25 240.1 1.25 240.1 11.89"/><polygon class="cls-1" points="251.89 11.89 245.49 11.89 245.49 1.25 251.76 1.25 251.76 3.08 247.47 3.08 247.47 5.61 251.61 5.61 251.61 7.44 247.47 7.44 247.47 10.06 251.89 10.06 251.89 11.89"/><path class="cls-1" d="M266,11.89H264l-1.35-3h-4l-1.28,3h-2.05l4.57-10.7h1.37Zm-6.58-4.81h2.34l-1.22-2.73Z"/><path class="cls-1" d="M274.38,11.89h-4.21V1.25h4.19A5.25,5.25,0,0,1,280,6.57,5.36,5.36,0,0,1,274.38,11.89Zm-2.23-1.83h2A3.45,3.45,0,0,0,278,6.57c0-1.69-1-3.49-3.86-3.49h-2Z"/><path class="cls-1" d="M107.72,29a4.67,4.67,0,0,1-4.94-4.58,4.77,4.77,0,0,1,5-4.84,7.73,7.73,0,0,1,3.08.73l.16.07v2l-.4-.23a5.47,5.47,0,0,0-2.85-.87,3,3,0,0,0-3.19,3.05,3,3,0,0,0,3.24,3,5.43,5.43,0,0,0,2.88-.94l.41-.26v2l-.14.07A6.59,6.59,0,0,1,107.72,29Z"/><path class="cls-1" d="M119.51,29a4.72,4.72,0,1,1,5-4.71A4.7,4.7,0,0,1,119.51,29Zm0-7.75a3,3,0,1,0,3.12,3A3,3,0,0,0,119.53,21.2Z"/><polygon class="cls-1" points="136.88 28.84 135.43 28.84 130.01 22.61 130.01 28.84 128.32 28.84 128.32 19.65 129.7 19.65 135.18 25.92 135.18 19.65 136.88 19.65 136.88 28.84"/><polygon class="cls-1" points="142.92 28.84 141.15 28.84 141.15 19.65 146.3 19.65 146.3 21.29 142.92 21.29 142.92 23.17 146.3 23.17 146.3 24.81 142.92 24.81 142.92 28.84"/><polygon class="cls-1" points="155.53 28.84 149.97 28.84 149.97 19.65 155.42 19.65 155.42 21.29 151.74 21.29 151.74 23.38 155.29 23.38 155.29 25.03 151.74 25.03 151.74 27.2 155.53 27.2 155.53 28.84"/><path class="cls-1" d="M166.7,28.84h-2.15l-1.22-1.9c-1.11-1.73-1.56-1.86-2.08-1.86H161v3.76h-1.77V19.65h2.45c1.89,0,3.11,1.06,3.11,2.69a2.39,2.39,0,0,1-1.21,2.17,8.83,8.83,0,0,1,1.63,2.17c.37.6.58.89,1.09,1.59ZM161,23.43h.54a1.6,1.6,0,0,0,1.17-.36,1,1,0,0,0,.27-.78c0-.49-.18-1-1.44-1H161Z"/><polygon class="cls-1" points="175.31 28.84 169.75 28.84 169.75 19.65 175.19 19.65 175.19 21.29 171.52 21.29 171.52 23.38 175.07 23.38 175.07 25.03 171.52 25.03 171.52 27.2 175.31 27.2 175.31 28.84"/><polygon class="cls-1" points="187.53 28.84 186.07 28.84 180.66 22.61 180.66 28.84 178.97 28.84 178.97 19.65 180.34 19.65 185.83 25.92 185.83 19.65 187.53 19.65 187.53 28.84"/><path class="cls-1" d="M196.38,29a4.67,4.67,0,0,1-4.94-4.58,4.77,4.77,0,0,1,5-4.84,7.84,7.84,0,0,1,3.08.73l.16.07v2l-.4-.23a5.48,5.48,0,0,0-2.85-.87,3,3,0,0,0-3.19,3.05,3,3,0,0,0,3.24,3,5.45,5.45,0,0,0,2.88-.94l.41-.26v2l-.14.07A6.6,6.6,0,0,1,196.38,29Z"/><polygon class="cls-1" points="209.22 28.84 203.66 28.84 203.66 19.65 209.1 19.65 209.1 21.29 205.43 21.29 205.43 23.38 208.97 23.38 208.97 25.03 205.43 25.03 205.43 27.2 209.22 27.2 209.22 28.84"/><path class="cls-1" d="M223.89,29a4.67,4.67,0,0,1-4.94-4.58,4.77,4.77,0,0,1,5-4.84,7.83,7.83,0,0,1,3.07.73l.16.07v2l-.4-.23A5.47,5.47,0,0,0,224,21.2a3,3,0,0,0-3.19,3.05,3,3,0,0,0,3.24,3,5.43,5.43,0,0,0,2.88-.94l.41-.26v2l-.14.07A6.58,6.58,0,0,1,223.89,29Z"/><polygon class="cls-1" points="236.72 28.84 231.17 28.84 231.17 19.65 236.61 19.65 236.61 21.29 232.94 21.29 232.94 23.38 236.48 23.38 236.48 25.03 232.94 25.03 232.94 27.2 236.72 27.2 236.72 28.84"/><polygon class="cls-1" points="248.94 28.84 247.49 28.84 242.08 22.61 242.08 28.84 240.38 28.84 240.38 19.65 241.76 19.65 247.24 25.92 247.24 19.65 248.94 19.65 248.94 28.84"/><polygon class="cls-1" points="257.23 28.84 255.46 28.84 255.46 21.29 252.46 21.29 252.46 19.65 260.23 19.65 260.23 21.29 257.23 21.29 257.23 28.84"/><polygon class="cls-1" points="269.31 28.84 263.75 28.84 263.75 19.65 269.19 19.65 269.19 21.29 265.52 21.29 265.52 23.38 269.06 23.38 269.06 25.03 265.52 25.03 265.52 27.2 269.31 27.2 269.31 28.84"/><path class="cls-1" d="M280.48,28.84h-2.15l-1.22-1.9c-1.11-1.73-1.56-1.86-2.08-1.86h-.26v3.76H273V19.65h2.45c1.89,0,3.11,1.06,3.11,2.69a2.39,2.39,0,0,1-1.21,2.17A8.7,8.7,0,0,1,279,26.66l0,.06c.34.55.55.84,1.06,1.54Zm-5.71-5.41h.54a1.6,1.6,0,0,0,1.17-.36,1,1,0,0,0,.27-.78c0-.49-.18-1-1.44-1h-.54Z"/><path class="cls-1" d="M.08,20.86A24.9,24.9,0,0,1,0,17.8L1.47,1.27H6.89L5.4,17.95c-.32,3.61,1.09,6.18,4.7,6.18s5.63-2.62,6-5.81l1.54-17H23L21.5,18.09C20.9,24.57,16.6,29.43,9.65,29.43,4.23,29.43.74,25.92.08,20.86Z"/><path class="cls-1" d="M25.2,15.26C25.9,7.32,31.26.74,40.51.74A12.68,12.68,0,0,1,47.62,2.8L47,9.36a8,8,0,0,0-7-3.27c-5.76,0-8.92,4-9.36,9.06s2.1,8.93,7.68,8.93A10.33,10.33,0,0,0,46,20.68l-.6,6.74a15.54,15.54,0,0,1-7.55,2.08C28.73,29.49,24.54,22.69,25.2,15.26Z"/><path class="cls-1" d="M51.94,1.27h5.39l-2,22.45H63.1c.55,0,2.39,0,2.89-.06,0,.27-.49,5.19-.49,5.19h-16Z"/><path class="cls-1" d="M81.45,0h-.37L66.29,28.85H72l2.07-4.37H84.52l1.3,4.38h5.72ZM80.07,11.56a6.5,6.5,0,0,0,.39-1.16h.09a6.5,6.5,0,0,0,.21,1.17c.29,1.25,2.4,8.24,2.4,8.24H76.34S80,11.74,80.07,11.56Z"/></g></g></svg>