<?xml version="1.0" encoding="utf-8"?>
<!-- Generator: Adobe Illustrator 26.0.3, SVG Export Plug-In . SVG Version: 6.00 Build 0)  -->
<svg version="1.1" id="Layer_1" xmlns="http://www.w3.org/2000/svg" xmlns:xlink="http://www.w3.org/1999/xlink" x="0px" y="0px"
	 viewBox="0 0 105.7 1830" style="enable-background:new 0 0 105.7 1830;" xml:space="preserve">
<style type="text/css">
	.st0{fill:none;stroke:#8DC5DB;stroke-width:2;stroke-miterlimit:10;}
</style>
<g>
	<g>
		<polyline class="st0" points="38.1,429.4 22.2,429.4 53.4,375.8 83.5,429.4 68.8,429.4 		"/>
		<polyline class="st0" points="38.1,456.2 22.2,456.2 53.4,402.6 83.5,456.2 68.8,456.2 		"/>
		<polyline class="st0" points="37.9,456 53.4,429.4 68.6,456.3 		"/>
		<polyline class="st0" points="38.1,114.9 22.2,114.9 53.4,61.4 83.5,114.9 68.8,114.9 		"/>
		<polyline class="st0" points="38.1,141.7 22.2,141.7 53.4,88.2 83.5,141.7 68.8,141.7 		"/>
		<polyline class="st0" points="37.9,141.6 53.4,114.9 68.6,141.9 		"/>
		<polygon class="st0" points="73.6,354.5 53.4,318.7 32.7,354.1 		"/>
		<polygon class="st0" points="42.6,197.7 22.4,161.9 1.7,197.3 		"/>
		<polygon class="st0" points="104,197.7 83.8,161.9 63.1,197.3 		"/>
		<polygon class="st0" points="73.6,40.9 53.4,5.1 32.7,40.5 		"/>
		<polyline class="st0" points="38.1,251.5 22.2,251.5 53.4,197.9 83.5,251.5 68.8,251.5 		"/>
		<polyline class="st0" points="38.1,251.6 22.2,251.6 53.4,305.1 83.5,251.6 68.8,251.6 		"/>
		<polyline class="st0" points="37.9,251.3 53.4,224.7 68.6,251.6 		"/>
		<polyline class="st0" points="37.9,251.8 53.4,278.4 68.6,251.5 		"/>
		<polyline class="st0" points="38.1,483.1 22.2,483.1 53.4,536.6 83.5,483.1 68.8,483.1 		"/>
		<polyline class="st0" points="38.1,456.3 22.2,456.3 53.4,509.9 83.5,456.3 68.8,456.3 		"/>
		<polyline class="st0" points="37.9,456.5 53.4,483.1 68.6,456.2 		"/>
		<polyline class="st0" points="38.1,797.6 22.2,797.6 53.4,851.1 83.5,797.6 68.8,797.6 		"/>
		<polyline class="st0" points="38.1,770.8 22.2,770.8 53.4,824.3 83.5,770.8 68.8,770.8 		"/>
		<polyline class="st0" points="37.9,770.9 53.4,797.6 68.6,770.6 		"/>
		<polygon class="st0" points="73.6,558 53.4,593.8 32.7,558.4 		"/>
		<polygon class="st0" points="42.6,714.8 22.4,750.6 1.7,715.2 		"/>
		<polygon class="st0" points="104,714.8 83.8,750.6 63.1,715.2 		"/>
		<polygon class="st0" points="73.6,871.6 53.4,907.4 32.7,872 		"/>
		<polyline class="st0" points="38.1,661 22.2,661 53.4,714.6 83.5,661 68.8,661 		"/>
		<polyline class="st0" points="38.1,660.9 22.2,660.9 53.4,607.4 83.5,660.9 68.8,660.9 		"/>
		<polyline class="st0" points="37.9,661.2 53.4,687.8 68.6,660.9 		"/>
		<polyline class="st0" points="37.9,660.7 53.4,634.1 68.6,661 		"/>
		<line class="st0" x1="22.4" y1="161.9" x2="22.4" y2="0.4"/>
		<line class="st0" x1="83.8" y1="161.9" x2="83.8" y2="0.4"/>
		<line class="st0" x1="53.2" y1="0" x2="53.2" y2="8"/>
		<line class="st0" x1="22.4" y1="197.7" x2="22.4" y2="715.5"/>
		<line class="st0" x1="22.4" y1="750.6" x2="22.4" y2="914.9"/>
		<line class="st0" x1="53.4" y1="593.8" x2="53.4" y2="871.8"/>
		<line class="st0" x1="53.4" y1="907.4" x2="53.4" y2="915"/>
		<line class="st0" x1="83.8" y1="750.6" x2="83.8" y2="915"/>
		<line class="st0" x1="83.8" y1="714.6" x2="83.8" y2="197.7"/>
		<line class="st0" x1="53.4" y1="558.2" x2="53.4" y2="354.5"/>
		<line class="st0" x1="53.4" y1="318.7" x2="53.4" y2="39.4"/>
	</g>
	<g>
		<polyline class="st0" points="38.1,1400.6 22.2,1400.6 53.4,1454.2 83.5,1400.6 68.8,1400.6 		"/>
		<polyline class="st0" points="38.1,1373.8 22.2,1373.8 53.4,1427.4 83.5,1373.8 68.8,1373.8 		"/>
		<polyline class="st0" points="37.9,1374 53.4,1400.6 68.6,1373.7 		"/>
		<polyline class="st0" points="38.1,1715.1 22.2,1715.1 53.4,1768.6 83.5,1715.1 68.8,1715.1 		"/>
		<polyline class="st0" points="38.1,1688.3 22.2,1688.3 53.4,1741.8 83.5,1688.3 68.8,1688.3 		"/>
		<polyline class="st0" points="37.9,1688.4 53.4,1715.1 68.6,1688.1 		"/>
		<polygon class="st0" points="73.6,1475.5 53.4,1511.3 32.7,1475.9 		"/>
		<polygon class="st0" points="42.6,1632.3 22.4,1668.1 1.7,1632.7 		"/>
		<polygon class="st0" points="104,1632.3 83.8,1668.1 63.1,1632.7 		"/>
		<polygon class="st0" points="73.6,1789.1 53.4,1824.9 32.7,1789.5 		"/>
		<polyline class="st0" points="38.1,1578.5 22.2,1578.5 53.4,1632.1 83.5,1578.5 68.8,1578.5 		"/>
		<polyline class="st0" points="38.1,1578.4 22.2,1578.4 53.4,1524.9 83.5,1578.4 68.8,1578.4 		"/>
		<polyline class="st0" points="37.9,1578.7 53.4,1605.3 68.6,1578.4 		"/>
		<polyline class="st0" points="37.9,1578.2 53.4,1551.6 68.6,1578.5 		"/>
		<polyline class="st0" points="38.1,1346.9 22.2,1346.9 53.4,1293.4 83.5,1346.9 68.8,1346.9 		"/>
		<polyline class="st0" points="38.1,1373.7 22.2,1373.7 53.4,1320.1 83.5,1373.7 68.8,1373.7 		"/>
		<polyline class="st0" points="37.9,1373.5 53.4,1346.9 68.6,1373.8 		"/>
		<polyline class="st0" points="38.1,1032.4 22.2,1032.4 53.4,978.9 83.5,1032.4 68.8,1032.4 		"/>
		<polyline class="st0" points="38.1,1059.2 22.2,1059.2 53.4,1005.7 83.5,1059.2 68.8,1059.2 		"/>
		<polyline class="st0" points="37.9,1059.1 53.4,1032.4 68.6,1059.4 		"/>
		<polygon class="st0" points="73.6,1272 53.4,1236.2 32.7,1271.6 		"/>
		<polygon class="st0" points="42.6,1115.2 22.4,1079.4 1.7,1114.8 		"/>
		<polygon class="st0" points="104,1115.2 83.8,1079.4 63.1,1114.8 		"/>
		<polygon class="st0" points="73.6,958.4 53.4,922.6 32.7,958 		"/>
		<polyline class="st0" points="38.1,1169 22.2,1169 53.4,1115.4 83.5,1169 68.8,1169 		"/>
		<polyline class="st0" points="38.1,1169.1 22.2,1169.1 53.4,1222.6 83.5,1169.1 68.8,1169.1 		"/>
		<polyline class="st0" points="37.9,1168.8 53.4,1142.2 68.6,1169.1 		"/>
		<polyline class="st0" points="37.9,1169.3 53.4,1195.9 68.6,1169 		"/>
		<line class="st0" x1="22.4" y1="1668.1" x2="22.4" y2="1829.6"/>
		<line class="st0" x1="83.8" y1="1668.1" x2="83.8" y2="1829.6"/>
		<line class="st0" x1="53.2" y1="1830" x2="53.2" y2="1822"/>
		<line class="st0" x1="22.4" y1="1632.3" x2="22.4" y2="1114.5"/>
		<line class="st0" x1="22.4" y1="1079.4" x2="22.4" y2="915.1"/>
		<line class="st0" x1="53.4" y1="1236.2" x2="53.4" y2="958.2"/>
		<line class="st0" x1="53.4" y1="922.6" x2="53.4" y2="915"/>
		<line class="st0" x1="83.8" y1="1079.4" x2="83.8" y2="915"/>
		<line class="st0" x1="83.8" y1="1115.4" x2="83.8" y2="1632.3"/>
		<line class="st0" x1="53.4" y1="1271.8" x2="53.4" y2="1475.5"/>
		<line class="st0" x1="53.4" y1="1511.3" x2="53.4" y2="1790.6"/>
	</g>
</g>
</svg>
