<?xml version="1.0" encoding="utf-8"?>
<!-- Generator: Adobe Illustrator 27.5.0, SVG Export Plug-In . SVG Version: 6.00 Build 0)  -->
<svg version="1.1" id="Layer_1" xmlns="http://www.w3.org/2000/svg" xmlns:xlink="http://www.w3.org/1999/xlink" x="0px" y="0px"
	 viewBox="0 0 629.2 760.2" style="enable-background:new 0 0 629.2 760.2;" xml:space="preserve">
<style type="text/css">
	.st0{fill:#FFFFFF;}
</style>
<g>
	<path class="st0" d="M219.1,642.5c0,0-20.8-16-58.2-20.4c-37.1-4.4-64.8,15.4-64.8,15.4s25,10.3,63,14.1
		C197.1,655.4,219.1,642.5,219.1,642.5z"/>
	<path class="st0" d="M160.8,609.6c0,0-18.7-19.3-53.5-32.6s-68.6-5.1-68.6-5.1s21.4,20.3,58.5,34.5
		C134.3,620.6,160.8,609.6,160.8,609.6z"/>
	<path class="st0" d="M105.2,563.9c0,0-10.9-26.6-39.9-53.4S0,479.1,0,479.1s13.1,28.7,44,57.2C74.9,564.8,105.2,563.9,105.2,563.9z
		"/>
	<path class="st0" d="M94.3,512.8c0,0-3.6-28.7-24.6-62.1S15,403.5,15,403.5s5.2,31.3,27.6,66.9C64.9,506,94.3,512.8,94.3,512.8z"/>
	<path class="st0" d="M95.6,444.4c0,0-1-29.3-18.6-65.1c-17.6-35.7-49.4-52.8-49.4-52.8s2.4,32.1,21.1,70.2
		C67.5,434.8,95.6,444.4,95.6,444.4z"/>
	<path class="st0" d="M178.8,590.2c0,0-8.7-21.8-32.2-43.9c-23.5-22.1-53.1-26.1-53.1-26.1s10.5,23.5,35.5,47
		S178.8,590.2,178.8,590.2z"/>
	<path class="st0" d="M238,622.7c0,0-12.1-11.8-34.1-20.4c-22-8.6-42.9-4.4-42.9-4.4s13.8,12.5,37.3,21.6
		C221.7,628.6,238,622.7,238,622.7z"/>
	<path class="st0" d="M295.5,634.4c0,0-12.6-5.2-31.3-4.5s-32.6,10.9-32.6,10.9s14,5.1,34,4.5C285.5,644.5,295.5,634.4,295.5,634.4z
		"/>
	<path class="st0" d="M152.9,537.4c0,0-4.1-23.2-22.5-49.7c-18.4-26.4-46.5-36.4-46.5-36.4s5.5,25.3,25.1,53.5
		C128.7,532.9,152.9,537.4,152.9,537.4z"/>
	<path class="st0" d="M129.7,466.6c0,0,4.5-23.6-3.1-55.2s-29.8-51-29.8-51s-3.9,26,4.1,59.7C109,453.8,129.7,466.6,129.7,466.6z"/>
	<path class="st0" d="M410.1,642.5c0,0,20.8-16,58.2-20.4c37.1-4.4,64.8,15.4,64.8,15.4s-25,10.3-63,14.1
		C432.1,655.4,410.1,642.5,410.1,642.5z"/>
	<path class="st0" d="M468.4,609.6c0,0,18.7-19.3,53.5-32.6s68.6-5.1,68.6-5.1s-21.4,20.3-58.5,34.5
		C494.9,620.6,468.4,609.6,468.4,609.6z"/>
	<path class="st0" d="M524,563.9c0,0,10.9-26.6,39.9-53.4s65.3-31.4,65.3-31.4s-13.1,28.7-44,57.2C554.3,564.8,524,563.9,524,563.9z
		"/>
	<path class="st0" d="M534.9,512.8c0,0,3.6-28.7,24.6-62.1s54.7-47.2,54.7-47.2s-5.2,31.3-27.6,66.9
		C564.3,506,534.9,512.8,534.9,512.8z"/>
	<path class="st0" d="M533.6,444.4c0,0,1-29.3,18.6-65.1c17.6-35.7,49.4-52.8,49.4-52.8s-2.4,32.1-21.1,70.2
		C561.7,434.8,533.6,444.4,533.6,444.4z"/>
	<path class="st0" d="M450.4,590.2c0,0,8.7-21.8,32.2-43.9c23.5-22.1,53.1-26.1,53.1-26.1s-10.5,23.5-35.5,47
		S450.4,590.2,450.4,590.2z"/>
	<path class="st0" d="M391.2,622.7c0,0,12.1-11.8,34.1-20.4c22-8.6,42.9-4.4,42.9-4.4s-13.8,12.5-37.3,21.6
		C407.5,628.6,391.2,622.7,391.2,622.7z"/>
	<path class="st0" d="M333.7,634.4c0,0,12.6-5.2,31.3-4.5c18.7,0.7,32.6,10.9,32.6,10.9s-14,5.1-34,4.5
		C343.7,644.5,333.7,634.4,333.7,634.4z"/>
	<path class="st0" d="M476.3,537.4c0,0,4.1-23.2,22.5-49.7c18.4-26.4,46.5-36.4,46.5-36.4s-5.5,25.3-25.1,53.5
		C500.5,532.9,476.3,537.4,476.3,537.4z"/>
	<path class="st0" d="M499.5,466.6c0,0-4.5-23.6,3.1-55.2s29.8-51,29.8-51s3.9,26-4.1,59.7C520.2,453.8,499.5,466.6,499.5,466.6z"/>
	<path class="st0" d="M324.1,642.7c0,5.3-4.3,9.5-9.5,9.5s-9.5-4.3-9.5-9.5c0-5.3,4.3-9.5,9.5-9.5
		C319.8,633.2,324.1,637.5,324.1,642.7z"/>
	<path class="st0" d="M126.1,701.8v-8.7h-13.4v51.8h13.4v-31.1c0-5.6,3.6-8.4,9.2-8.4h7.3V693h-6.2
		C131.6,693.1,127.3,695.6,126.1,701.8z"/>
	<path class="st0" d="M161.8,693.1h-13.3v51.8h13.3V693.1z"/>
	<path class="st0" d="M198.6,692.2c-6,0-11.4,2-15.7,5.3v-4.4h-13.4v67.1h13.3v-19.7c4.3,3.3,9.8,5.3,15.7,5.3
		c14.8,0,26.8-12,26.8-26.8S213.4,692.2,198.6,692.2z M197.4,733.5c-8,0-14.6-6.5-14.6-14.6c0-8,6.5-14.6,14.6-14.6
		c8,0,14.6,6.5,14.6,14.6C211.9,727,205.4,733.5,197.4,733.5z"/>
	<path class="st0" d="M457,714.4l-7.8-2.1c-5.1-1.3-7.1-2.9-7.1-5.6c0-2.6,2.8-4.5,6.8-4.5c3.8,0,6.8,2.5,6.8,5.7v0.3H468v-0.3
		c0-9.4-7.7-15.7-19.1-15.7c-11.3,0-19.5,6.3-19.5,15c0,6.8,4.5,11.9,12.3,14l7.4,2c5.7,1.6,7.8,3.3,7.8,6.4c0,3.3-3,5.5-7.6,5.5
		c-4.7,0-7.9-3-7.9-7.4v-0.3h-13v0.3c0,10.6,8.6,18.1,20.8,18.1c11.8,0,20.4-7.3,20.4-17.2C469.7,723.6,467.5,717.2,457,714.4z"/>
	<path class="st0" d="M272.6,697.4c-4.3-3.3-9.8-5.3-15.7-5.3c-14.8,0-26.8,12-26.8,26.8s12,26.8,26.8,26.8c6,0,11.4-2,15.7-5.3v4.4
		h13.3V693h-13.3V697.4z M258.1,733.5c-8,0-14.6-6.5-14.6-14.6c0-8,6.5-14.6,14.6-14.6s14.6,6.5,14.6,14.6
		C272.6,727,266.1,733.5,258.1,733.5z"/>
	<path class="st0" d="M334.1,697.4c-4.3-3.3-9.8-5.3-15.7-5.3c-14.8,0-26.8,12-26.8,26.8s12,26.8,26.8,26.8c6,0,11.4-2,15.7-5.3v4.4
		h13.3v-70.3h-13.3V697.4z M319.5,733.5c-8,0-14.6-6.5-14.6-14.6c0-8,6.5-14.6,14.6-14.6c8,0,14.6,6.5,14.6,14.6
		S327.6,733.5,319.5,733.5z"/>
	<path class="st0" d="M422.6,693.1h-13.3v51.8h13.3V693.1z"/>
	<path class="st0" d="M500.5,692.2c-14.8,0-26.8,12-26.8,26.8s12,26.8,26.8,26.8s26.8-12,26.8-26.8S515.3,692.2,500.5,692.2z
		 M500.5,733.5c-8,0-14.6-6.5-14.6-14.6c0-8,6.5-14.6,14.6-14.6c8,0,14.6,6.5,14.6,14.6C515,727,508.5,733.5,500.5,733.5z"/>
	<path class="st0" d="M546.8,701.8v-8.7h-13.4v51.8h13.4v-31.1c0-5.6,3.6-8.4,9.2-8.4h7.3V693h-6.2
		C552.2,693.1,548,695.6,546.8,701.8z"/>
	<path class="st0" d="M119.3,674.6H68.2v11.9h18.9v58.4h13.3v-58.4h18.9V674.6z"/>
	<path class="st0" d="M377.9,730.7L366,693.1h-14l17.8,51.8h16l17.9-51.8h-14L377.9,730.7z"/>
	<path class="st0" d="M163.3,680.7c0,4.5-3.6,8.1-8.1,8.1s-8.1-3.6-8.1-8.1s3.6-8.1,8.1-8.1S163.3,676.2,163.3,680.7z"/>
	<path class="st0" d="M424.1,680.7c0,4.5-3.6,8.1-8.1,8.1s-8.1-3.6-8.1-8.1s3.6-8.1,8.1-8.1S424.1,676.2,424.1,680.7z"/>
	<path class="st0" d="M314.6,281C219.8,281,143,357.8,143,452.6s76.8,171.6,171.6,171.6s171.6-76.8,171.6-171.6
		C486.2,357.9,409.4,281,314.6,281z M314.6,607c-85.2,0-154.3-69.1-154.3-154.3s69.1-154.3,154.3-154.3s154.3,69.1,154.3,154.3
		S399.8,607,314.6,607z"/>
	<path class="st0" d="M314.6,401.4c-14.2,0-27.7,2.8-40,8c22.7,8.7,40,29,40,52.7c0-23.7,17.2-44,40-52.7
		C342.3,404.2,328.8,401.4,314.6,401.4z"/>
	<path class="st0" d="M261.4,427.1c-19.9,0-36,16.1-36,36s16.1,36,36,36s36-16.1,36-36C297.4,443.3,281.3,427.1,261.4,427.1z
		 M261.4,482c-10.4,0-18.9-8.5-18.9-18.9s8.5-18.9,18.9-18.9s18.9,8.5,18.9,18.9C280.2,473.6,271.8,482,261.4,482z"/>
	<path class="st0" d="M367.8,427.1c-19.9,0-36,16.1-36,36s16.1,36,36,36s36-16.1,36-36C403.8,443.3,387.7,427.1,367.8,427.1z
		 M367.8,482c-10.4,0-18.9-8.5-18.9-18.9s8.5-18.9,18.9-18.9s18.9,8.5,18.9,18.9C386.7,473.6,378.2,482,367.8,482z"/>
	<path class="st0" d="M314.6,315.7c-75.7,0-137,61.4-137,137c0,75.7,61.4,137,137,137s137-61.4,137-137
		C451.6,377,390.3,315.7,314.6,315.7z M367.8,516.4c-14,0-26.7-5.4-36.2-14.2l-17.1,18.6l-17-18.6c-9.5,8.8-22.2,14.2-36.2,14.2
		c-29.4,0-53.2-23.8-53.2-53.2c0-15.6,6.7-29.6,17.4-39.3L208.1,405h38.7c19.3-13.2,42.6-20.9,67.8-20.9s48.6,7.7,67.9,20.9h38.6
		l-17.4,18.9c10.7,9.7,17.4,23.8,17.4,39.3C421.1,492.6,397.2,516.4,367.8,516.4z"/>
	<path class="st0" d="M236.8,42.3l17.8-16.8c4.6-4.3,6.7-6.6,6.7-11.1c0-4.8-3.7-7.8-8.7-7.8c-5.7,0-8.9,3.5-9.3,8.2h-6.8
		c0.3-8.2,6.3-14.6,16.3-14.6c9.8,0,15.5,5.8,15.5,13.9c0,5.7-2.7,10.1-8.5,15.3l-13.1,11.8h22v6.6h-32L236.8,42.3L236.8,42.3z"/>
	<path class="st0" d="M276,24.5C276,10.7,286.1,0,299.9,0s23.9,10.6,23.9,24.5c0,13.8-10.1,24.5-23.9,24.5
		C286.1,49.1,276,38.4,276,24.5z M316.7,24.5c0-11.1-7.7-18-16.8-18s-16.8,6.9-16.8,18s7.7,18,16.8,18
		C309.1,42.5,316.7,35.7,316.7,24.5z"/>
	<path class="st0" d="M330.8,42.3l17.8-16.8c4.6-4.3,6.7-6.6,6.7-11.1c0-4.8-3.7-7.8-8.7-7.8c-5.7,0-8.9,3.5-9.3,8.2h-6.8
		c0.3-8.2,6.3-14.6,16.3-14.6c9.8,0,15.5,5.8,15.5,13.9c0,5.7-2.7,10.1-8.5,15.3l-13.1,11.8h22v6.6h-32L330.8,42.3L330.8,42.3z"/>
	<path class="st0" d="M372.4,42.3l17.8-16.8c4.6-4.3,6.7-6.6,6.7-11.1c0-4.8-3.7-7.8-8.7-7.8c-5.7,0-8.9,3.5-9.3,8.2h-6.8
		c0.3-8.2,6.3-14.6,16.3-14.6c9.8,0,15.5,5.8,15.5,13.9c0,5.7-2.7,10.1-8.5,15.3l-13.1,11.8h22v6.6h-32v-5.5
		C372.3,42.3,372.4,42.3,372.4,42.3z"/>
	<path class="st0" d="M120.2,90.5H97.9v66H80.6v-66H58.2V74.6h62V90.5z"/>
	<path class="st0" d="M150.7,98.7v15.6H142c-6.3,0-9.4,3-9.4,9.4v32.9h-16.4V98.8h15.3v10.8c1.3-7.7,6.5-10.8,12-10.8h7.2"/>
	<path class="st0" d="M152.7,127.6c0-17,12-30.5,28.6-30.5c8.2,0,14.3,2.6,18.1,6.5v-4.9h15.2v57.8h-15.1v-7
		c-3.7,5-9.2,8.7-18.6,8.7C164.7,158.1,152.7,144.6,152.7,127.6z M199.5,127.6c0-9.2-6.8-15.3-15.2-15.3s-15.2,6.1-15.2,15.3
		s6.8,15.3,15.2,15.3S199.5,136.8,199.5,127.6z"/>
	<path class="st0" d="M221.1,98.7h17.5l8.8,30.5c1.1,3.5,1.6,5.8,2.2,8.5c0.6-2.7,1.2-5,2.2-8.5l8.8-30.5h17.5l-19.2,57.8h-18.7
		L221.1,98.7z"/>
	<path class="st0" d="M337,131.5h-42.9c0.7,8,6.7,13.1,13.8,13.1c6.7,0,11.6-3.5,13-8.8h15.6c-2.8,14.1-13.2,22.3-28.6,22.3
		c-18.1,0-30.1-13.3-30.1-30.5c0-18,13.7-30.5,29.9-30.5c18.2,0,29.2,11.1,29.2,31.8v2.6L337,131.5L337,131.5z M294.9,119.2h26.8
		c-1.6-5.7-6.2-9.5-13.7-9.5C302,109.7,297,113.3,294.9,119.2z"/>
	<path class="st0" d="M360.9,74.6h-16.4v81.8h16.4V74.6z"/>
	<path class="st0" d="M387.2,74.6h-16.4v81.8h16.4V74.6z"/>
	<path class="st0" d="M453.2,131.5h-42.9c0.7,8,6.7,13.1,13.8,13.1c6.7,0,11.6-3.5,13-8.8h15.7c-2.8,14.1-13.2,22.3-28.6,22.3
		c-18.1,0-30.1-13.3-30.1-30.5c0-18,13.7-30.5,29.9-30.5c18.2,0,29.2,11.1,29.2,31.8V131.5z M411.1,119.2h26.8
		c-1.6-5.7-6.2-9.5-13.7-9.5C418.2,109.7,413.2,113.3,411.1,119.2z"/>
	<path class="st0" d="M495.1,98.7v15.6h-8.6c-6.3,0-9.4,3-9.4,9.4v32.9h-16.4V98.8h15.2v10.8c1.3-7.7,6.5-10.8,12-10.8h7.2"/>
	<path class="st0" d="M499.6,137.5h16.6c0,4,2.5,6.7,6.4,6.7s6.2-1.9,6.2-4.8c0-3.2-2.6-4.9-7.8-6.4l-7.6-2.2
		c-7.6-2.2-12.9-7.6-12.9-16c0-10.6,9.6-17.7,21.5-17.7c13.6,0,21,7.7,21,18.5h-15.4c0-2.8-2.2-5.5-5.7-5.5c-3.3,0-5.5,1.9-5.5,4.1
		c0,2.7,2.1,4,6.7,5.3l8.4,2.3c7.7,2.1,13.1,7.4,13.1,16c0,10.9-8.5,20.3-22.2,20.3C509.8,158.1,499.6,150.3,499.6,137.5z"/>
	<path class="st0" d="M551,101.2h1.5c4,0,7.6-2.1,8.3-8.1c-0.7,0.4-1.4,0.5-2.3,0.5c-5.7,0-10.2-4.3-10.2-10.3
		c0-5.7,4.6-10.3,10.3-10.3c7.4,0,11.5,6.8,11.5,15.7c0,14.3-6.9,20.9-16.6,20.9H551V101.2"/>
	<path class="st0" d="M132.4,220.7c0-25.1,18.7-42.6,41.3-42.6c22,0,35.8,12.2,38.9,31.6h-17.7c-2.6-9.6-10.3-15.4-21.3-15.4
		c-13.2,0-24,10.8-24,26.4c0,15.7,10.8,26.4,24,26.4c10.9,0,18.7-5.6,21.3-15.6h18c-3.5,19.6-18.9,31.7-39.3,31.7
		C150.7,263.3,132.4,245.9,132.4,220.7z"/>
	<path class="st0" d="M220.2,179.8h16.4v31.9c2.6-4.8,9.1-9.5,18.4-9.5c11.5,0,19.5,8.1,19.5,21.3v38.1h-16.4v-33.4
		c0-6.8-4.6-11.5-10.8-11.5s-10.8,4.7-10.8,11.5v33.4h-16.4L220.2,179.8z"/>
	<path class="st0" d="M280.8,232.8c0-17,12.4-30.5,31.2-30.5c18.8,0,31.2,13.6,31.2,30.5c0,17-12.4,30.5-31.2,30.5
		C293.2,263.3,280.8,249.7,280.8,232.8z M326.8,232.8c0-9.2-6.4-15.3-14.8-15.3s-14.9,6.1-14.9,15.3s6.4,15.3,14.9,15.3
		C320.4,248.1,326.8,242,326.8,232.8z"/>
	<path class="st0" d="M347.6,186.2c0-5.7,4.6-10.3,10.3-10.3c5.7,0,10.3,4.6,10.3,10.3s-4.6,10.3-10.3,10.3
		C352.1,196.5,347.6,192,347.6,186.2z M349.7,203.9h16.4v57.8h-16.4V203.9z"/>
	<path class="st0" d="M372.7,232.8c0-17,12.3-30.5,30.5-30.5s28.1,9.7,29.8,23.3h-17.1c-1.6-4.8-5.7-8.1-12.7-8.1
		c-7.4,0-14.1,6.1-14.1,15.3s6.7,15.3,14.1,15.3c6.9,0,10.9-3,12.7-8.1H433c-2.7,14.2-12.2,23.3-29.8,23.3
		C385,263.3,372.7,249.7,372.7,232.8z"/>
	<path class="st0" d="M495.3,236.6h-42.9c0.7,8,6.7,13.1,13.8,13.1c6.7,0,11.6-3.5,13-8.8h15.7c-2.8,14.1-13.2,22.3-28.6,22.3
		c-18.1,0-30-13.3-30-30.5c0-18,13.7-30.5,29.9-30.5c18.2,0,29.2,11.1,29.2,31.8L495.3,236.6L495.3,236.6z M453.2,224.3H480
		c-1.6-5.7-6.2-9.5-13.7-9.5C460.4,214.9,455.3,218.5,453.2,224.3z"/>
	<path class="st0" d="M489.7,184.4h9.8v2.1h-3.8v11h-2.2v-11h-3.8V184.4z"/>
	<path class="st0" d="M507.6,194.2l-3.6-9.8h-2.7v13.1h2.2v-7.3c0-0.7-0.1-1.3-0.1-2l3.4,9.3h1.6l3.4-9.3c-0.1,0.7-0.1,1.3-0.1,2
		v7.3h2.2v-13.1h-2.7L507.6,194.2z"/>
</g>
</svg>
