<?xml version="1.0" encoding="utf-8"?>
<!-- Generator: Adobe Illustrator 26.0.3, SVG Export Plug-In . SVG Version: 6.00 Build 0)  -->
<svg version="1.1" id="Layer_1" xmlns="http://www.w3.org/2000/svg" xmlns:xlink="http://www.w3.org/1999/xlink" x="0px" y="0px"
	 viewBox="0 0 447.9 16" style="enable-background:new 0 0 447.9 16;" xml:space="preserve">
<style type="text/css">
	.st0{fill:#8DC5DB;}
	.st1{fill-rule:evenodd;clip-rule:evenodd;fill:#FFFFFF;}
	.st2{fill:none;stroke:#51534A;stroke-width:2.3163;stroke-miterlimit:10;}
	.st3{fill-rule:evenodd;clip-rule:evenodd;fill:none;stroke:#51534A;stroke-width:2.3163;stroke-miterlimit:10;}
	.st4{fill-rule:evenodd;clip-rule:evenodd;fill:#BCBEC0;stroke:#EC008C;stroke-width:2.3163;stroke-miterlimit:10;}
	.st5{fill:none;stroke:#51534A;stroke-width:2.1507;stroke-miterlimit:10;}
	.st6{fill-rule:evenodd;clip-rule:evenodd;fill:none;stroke:#51534A;stroke-width:5.0173;stroke-miterlimit:10;}
	.st7{fill-rule:evenodd;clip-rule:evenodd;fill:none;stroke:#51534A;stroke-width:2.5087;stroke-miterlimit:10;}
	.st8{fill:none;stroke:#51534A;stroke-width:2.5087;stroke-miterlimit:10;}
	.st9{fill:none;stroke:#51534A;stroke-width:2.2534;stroke-miterlimit:10;}
</style>
<polygon class="st0" points="1.1,1.3 1.1,15.7 446.7,15.7 445.5,1.3 "/>
<polygon class="st1" points="137.9,1.9 154.7,5.7 171.7,8.8 194.2,5.5 205.6,0.8 230.7,1.6 223.4,5.3 185,13.7 167.1,13.7 
	154.7,14.3 139.9,8.9 125.2,6.8 "/>
<polygon class="st1" points="232.5,1.9 248.9,5.1 266.4,8.8 288.8,5.5 300.2,0.8 322.7,1.3 318,5.3 279.7,13.7 261.7,13.7 
	249.3,14.3 234.5,8.9 219.8,6.8 "/>
<path class="st2" d="M131.5,4.1c16.1-3,21.6,0.9,26.2,2.9c4.6,2,14.1,7.8,14.1,7.8"/>
<path class="st3" d="M111.6,9.9c0,0,6.8-2.6,16.6-2.3c18.2,0.5,28.5,7.2,28.5,7.2"/>
<path class="st3" d="M228.8,3.2c0,0-13.5,4.3-24.5,7.1c-30.7,7.8-43.1-1.6-43.1-1.6"/>
<path class="st3" d="M152.9,4.9c0,0,15.9,6,30.5,3.4c10-1.8,23.1-7.1,23.1-7.1"/>
<path class="st2" d="M228.1,3.4c16.1-3,19.7,1.6,24.3,3.6s14.1,7.8,14.1,7.8"/>
<polygon class="st1" points="327.2,1.9 344,5.7 361,8.8 383.4,5.5 394.9,0.8 422.5,1.4 412.6,5.3 374.3,13.7 356.3,13.7 344,14.3 
	329.2,8.9 310.5,6.7 "/>
<path class="st3" d="M206,9.9c0,0,7-2.6,16.8-2.3c18.2,0.5,28.5,7.2,28.5,7.2"/>
<path class="st2" d="M255.8,8.7c0,0,12.5,9.4,43.1,1.6c7.4-1.9,10.3-4.5,21.9-7c11.6-2.5,21.6,0.9,26.2,2.9s14.1,7.8,14.1,7.8"/>
<path class="st3" d="M248.2,4.8c0,0,15.3,6.1,29.9,3.4c10-1.8,23.3-7.1,23.3-7.1"/>
<polygon class="st1" points="421.8,1.9 438.6,5.7 446.5,9 446.7,14.8 438.6,14.3 423.8,8.9 409.1,6.8 "/>
<path class="st3" d="M300.6,9.9c0,0,7.2-2.6,16.9-2.3c18.2,0.5,28.5,7.2,28.5,7.2"/>
<path class="st2" d="M355.1,10.5c0,0,8.1,7.3,38.4-0.2c7-1.7,14.9-4.1,19.8-5.6l2.1-0.6c16.1-3,21.6,0.9,26.2,2.9s5.1,3.1,5.1,3.1"
	/>
<path class="st3" d="M343.1,4.8c0,0,15,6.2,29.6,3.5c10-1.8,23.3-7.1,23.3-7.1"/>
<path class="st3" d="M395.3,9.9c0,0,7.1-2.6,16.8-2.3c18.2,0.5,28.5,7.2,28.5,7.2"/>
<path class="st4" d="M1.1,1.4"/>
<path class="st5" d="M52.9,3.2"/>
<polyline class="st1" points="1.1,6.1 16.2,1.9 26.4,1.9 43.5,1.9 61.1,5.7 78.1,8.8 100.6,5.5 112,0.8 136,1.2 129.8,5.3 
	91.4,13.7 73.5,13.7 61.1,14.3 34.7,6.8 1.1,13.2 "/>
<path class="st2" d="M36.5,4.3C52.6,1.2,58.8,5,63.3,7s14.1,7.8,14.1,7.8"/>
<path class="st2" d="M1.1,12.5c4.9-0.1,10.4-0.8,16.6-2.7c31.8-9.3,26.5-8.5,38.2-8.7"/>
<path class="st2" d="M0.7,6.5c11.6-1.6,18-5.3,18-5.3"/>
<path class="st6" d="M91.2,9.9"/>
<path class="st7" d="M134.9,2.2"/>
<path class="st7" d="M81,10.2"/>
<path class="st3" d="M17.7,9.9c0,0,6.3-2.5,16.1-2.3c18.2,0.5,27.3,7.2,27.3,7.2"/>
<path class="st3" d="M136.9,2.5c0,0-16,5.1-27.1,7.9C79.2,18,66.7,8.7,66.7,8.7"/>
<path class="st3" d="M58.5,4.9c0,0,15.9,6,30.5,3.4c10-1.8,23.6-7.1,23.6-7.1"/>
<path class="st8" d="M145.6,1.9"/>
<rect x="217.1" y="-214.8" transform="matrix(6.123234e-17 -1 1 6.123234e-17 215.9169 231.9147)" class="st9" width="13.7" height="445.6"/>
</svg>
