<svg xmlns="http://www.w3.org/2000/svg" viewBox="0 0 350.55 29.22"><defs><style>.cls-1{fill:#6384a5;}</style></defs><g id="Layer_2" data-name="Layer 2"><g id="Layer_1-2" data-name="Layer 1"><path class="cls-1" d="M0,.2H2.07V7.75c0,2.31,1.21,2.92,3,2.92a12.65,12.65,0,0,0,2.37-.21V.2H9.49V11.88a19.09,19.09,0,0,1-4.43.55c-2.73,0-5.06-1-5.06-4.31Z"/><path class="cls-1" d="M24.85,3.12a4.75,4.75,0,0,0-3.32-1.26,4,4,0,0,0-4.07,4.35,4.06,4.06,0,0,0,4.13,4.36A4.93,4.93,0,0,0,25,9.33v2.21a6.62,6.62,0,0,1-3.46.89,5.91,5.91,0,0,1-6.2-6.22A6,6,0,0,1,21.53,0a6.27,6.27,0,0,1,3.32.85Z"/><path class="cls-1" d="M30.83.2h2.06V10.4h4.9v1.83h-7Z"/><path class="cls-1" d="M45.49,9.39l-1.05,2.84H42.25L46.93.2h2.53l4.69,12H51.91L50.85,9.39Zm2.69-7.24L46.12,7.69h4.11Z"/><path class="cls-1" d="M66.72.2h2.06V10.4h4.9v1.83h-7Z"/><path class="cls-1" d="M81.38,9.39l-1,2.84H78.14L82.82.2h2.53l4.69,12H87.8L86.74,9.39Zm2.69-7.24L82,7.69h4.1Z"/><path class="cls-1" d="M95.21.2h2.07v12H95.21ZM102,.2h2.47L99.71,6.11l5,6.12h-2.51L97.36,6.29Z"/><path class="cls-1" d="M117.29,10.4v1.83h-7.47V.2h7.34V2h-5.3V5.26h4.92V7h-4.92V10.4Z"/><path class="cls-1" d="M132.52,9.39l-1.05,2.84h-2.19L134,.2h2.53l4.69,12h-2.24l-1.06-2.84Zm2.69-7.24-2.06,5.54h4.1Z"/><path class="cls-1" d="M148.42,12.23h-2.07V.22a21.93,21.93,0,0,1,3-.22c3.16,0,4.88,1.4,4.88,3.93a3.66,3.66,0,0,1-2.39,3.56l3.62,4.74H153L149.77,8h-1.35Zm0-6h1c1.64,0,2.69-.71,2.69-2.27,0-1.38-1-2.19-2.77-2.19-.24,0-.71,0-.93,0Z"/><path class="cls-1" d="M162.57,12.23h-2.06V.22a21.81,21.81,0,0,1,3-.22c3.15,0,4.87,1.4,4.87,3.93A3.66,3.66,0,0,1,166,7.49l3.62,4.74h-2.49L163.93,8h-1.36Zm0-6h1c1.64,0,2.69-.71,2.69-2.27,0-1.38-.95-2.19-2.77-2.19-.25,0-.71,0-.94,0Z"/><path class="cls-1" d="M180.09,0a6.06,6.06,0,0,1,6.24,6.21,6.24,6.24,0,0,1-12.47,0A6,6,0,0,1,180.09,0Zm0,1.86A4.07,4.07,0,0,0,176,6.21a4.12,4.12,0,1,0,8.22,0A4.07,4.07,0,0,0,180.09,1.86Z"/><path class="cls-1" d="M199.8.2,202.21,10,204.6.2h2l-3.08,12h-2.63l-2.25-9.29-2.26,9.29h-2.61L190.73.2h2.08L195.2,10,197.59.2Z"/><path class="cls-1" d="M220.25.2h2.07v12h-2.07V7.08H214v5.15H212V.2H214V5.26h6.21Z"/><path class="cls-1" d="M236.34,10.4v1.83h-7.47V.2h7.35V2h-5.31V5.26h4.92V7h-4.92V10.4Z"/><path class="cls-1" d="M244.4,9.39l-1.05,2.84h-2.19l4.68-12h2.53l4.69,12h-2.24l-1.06-2.84Zm2.69-7.24L245,7.69h4.11Z"/><path class="cls-1" d="M258.23.22a25.68,25.68,0,0,1,3.2-.22c4.8,0,7.07,2.49,7.07,6,0,3.85-2.37,6.4-7,6.4a21.71,21.71,0,0,1-3.24-.22Zm2.07,10.31a10.24,10.24,0,0,0,1.36.08c2.77,0,4.69-1.46,4.69-4.6,0-2.59-1.66-4.11-4.84-4.11-.38,0-.81,0-1.21.06Z"/><path class="cls-1" d="M281.73.2h2.06V10.4h4.9v1.83h-7Z"/><path class="cls-1" d="M299.31,0a6.05,6.05,0,0,1,6.23,6.21,6.24,6.24,0,0,1-12.47,0A6,6,0,0,1,299.31,0Zm0,1.86a4.07,4.07,0,0,0-4.11,4.35,4.11,4.11,0,1,0,8.21,0A4.07,4.07,0,0,0,299.31,1.86Z"/><path class="cls-1" d="M311.38.22a25.68,25.68,0,0,1,3.2-.22c4.8,0,7.06,2.49,7.06,6,0,3.85-2.37,6.4-7,6.4a21.61,21.61,0,0,1-3.24-.22Zm2.06,10.31a10.44,10.44,0,0,0,1.36.08c2.77,0,4.7-1.46,4.7-4.6,0-2.59-1.66-4.11-4.84-4.11-.39,0-.81,0-1.22.06Z"/><path class="cls-1" d="M336.59,3.12a5,5,0,0,0-3.4-1.26A4.07,4.07,0,0,0,329,6.21a4.13,4.13,0,0,0,4.19,4.42,4.36,4.36,0,0,0,1.78-.29V6.7H337v4.84a7.88,7.88,0,0,1-3.89.89,5.89,5.89,0,0,1-6.28-6.22A6,6,0,0,1,333.09,0a6.65,6.65,0,0,1,3.5.91Z"/><path class="cls-1" d="M350.55,10.4v1.83h-7.47V.2h7.35V2h-5.31V5.26H350V7h-4.92V10.4Z"/><path class="cls-1" d="M0,25.86A3.33,3.33,0,0,1,3.52,22.5a3.36,3.36,0,0,1,2.67,1.15l-1,.89a2.09,2.09,0,0,0-1.63-.76,2.08,2.08,0,0,0,0,4.16,2.07,2.07,0,0,0,1.63-.77l1,.89a3.34,3.34,0,0,1-2.68,1.16A3.33,3.33,0,0,1,0,25.86Z"/><path class="cls-1" d="M9.45,25.86A3.36,3.36,0,0,1,13,22.5a3.37,3.37,0,1,1,0,6.72A3.36,3.36,0,0,1,9.45,25.86Zm5.58,0a2,2,0,1,0-2,2.08A2,2,0,0,0,15,25.86Z"/><path class="cls-1" d="M26.43,22.61v6.5H25.2L22,25.16v3.95H20.48v-6.5h1.24L25,26.56V22.61Z"/><path class="cls-1" d="M32.26,23.82v1.71h3v1.21h-3v2.37h-1.5v-6.5h4.91v1.21Z"/><path class="cls-1" d="M44.5,27.9v1.21h-5v-6.5h4.9v1.21H41v1.41h3V26.4H41v1.5Z"/><path class="cls-1" d="M52.63,29.11,51.38,27.3H50v1.81H48.49v-6.5H51.3c1.74,0,2.82.9,2.82,2.36A2.11,2.11,0,0,1,52.79,27l1.45,2.09Zm-1.41-5.27H50V26.1h1.22c.92,0,1.38-.42,1.38-1.13S52.14,23.84,51.22,23.84Z"/><path class="cls-1" d="M63.13,27.9v1.21h-5v-6.5H63v1.21H59.59v1.41h3V26.4h-3v1.5Z"/><path class="cls-1" d="M73.07,22.61v6.5H71.83L68.6,25.16v3.95H67.12v-6.5h1.24l3.22,3.95V22.61Z"/><path class="cls-1" d="M77,25.86a3.34,3.34,0,0,1,3.53-3.36,3.37,3.37,0,0,1,2.67,1.15l-1,.89a2.08,2.08,0,0,0-1.63-.76,2.08,2.08,0,1,0,0,4.16,2.06,2.06,0,0,0,1.63-.77l1,.89a3.57,3.57,0,0,1-6.2-2.2Z"/><path class="cls-1" d="M92,27.9v1.21H87v-6.5h4.9v1.21H88.48v1.41h3V26.4h-3v1.5Z"/><path class="cls-1" d="M101,25.86a3.57,3.57,0,0,1,6.19-2.21l-1,.89a2.11,2.11,0,0,0-1.64-.76,2.08,2.08,0,0,0,0,4.16,2.09,2.09,0,0,0,1.64-.77l1,.89a3.56,3.56,0,0,1-6.19-2.2Z"/><path class="cls-1" d="M116,27.9v1.21h-5v-6.5h4.91v1.21H112.5v1.41h3V26.4h-3v1.5Z"/><path class="cls-1" d="M126,22.61v6.5h-1.23l-3.24-3.95v3.95H120v-6.5h1.24l3.23,3.95V22.61Z"/><path class="cls-1" d="M131.65,23.84h-2.08V22.61h5.66v1.23h-2.08v5.27h-1.5Z"/><path class="cls-1" d="M143.85,27.9v1.21h-5v-6.5h4.9v1.21h-3.41v1.41h3V26.4h-3v1.5Z"/><path class="cls-1" d="M152,29.11l-1.25-1.81h-1.38v1.81h-1.5v-6.5h2.81c1.73,0,2.82.9,2.82,2.36A2.11,2.11,0,0,1,152.13,27l1.46,2.09Zm-1.41-5.27h-1.22V26.1h1.22c.92,0,1.39-.42,1.39-1.13S151.48,23.84,150.56,23.84Z"/><path class="cls-1" d="M167.85,29.22l-.78-.73a3.44,3.44,0,0,1-2.17.73c-1.43,0-2.48-.75-2.48-1.78,0-.82.44-1.39,1.43-1.94a2,2,0,0,1-.67-1.37c0-.95.8-1.6,2-1.6s1.86.58,1.86,1.49c0,.67-.39,1.16-1.27,1.65l1.19,1.1a4.44,4.44,0,0,0,.32-1l1.16.36a4.32,4.32,0,0,1-.59,1.47l.76.71Zm-1.63-1.52-1.57-1.46c-.59.34-.81.64-.81,1s.45.8,1.16.8A2.1,2.1,0,0,0,166.22,27.7Zm-1.72-3.59c0,.25.1.43.5.82.64-.34.84-.58.84-.88s-.22-.54-.63-.54S164.5,23.76,164.5,24.11Z"/><path class="cls-1" d="M179.32,23.82v1.71h3v1.21h-3v2.37h-1.51v-6.5h4.91v1.21Z"/><path class="cls-1" d="M190.54,27.71h-3l-.57,1.4h-1.54l2.89-6.5h1.48l2.91,6.5h-1.58Zm-.48-1.14-1-2.48-1,2.48Z"/><path class="cls-1" d="M202.06,29.11v-3.9l-1.91,3.21h-.67l-1.9-3.13v3.82h-1.41v-6.5h1.24l2.43,4,2.39-4h1.23l0,6.5Z"/><path class="cls-1" d="M207.81,22.61h1.5v6.5h-1.5Z"/><path class="cls-1" d="M213.64,22.61h1.5v5.27h3.25v1.23h-4.75Z"/><path class="cls-1" d="M224.48,26.81v2.3H223V26.79l-2.51-4.18h1.6l1.73,2.89,1.73-2.89H227Z"/><path class="cls-1" d="M240,29.11l-1.25-1.81h-1.39v1.81h-1.5v-6.5h2.81c1.74,0,2.82.9,2.82,2.36A2.11,2.11,0,0,1,240.12,27l1.46,2.09Zm-1.41-5.27h-1.23V26.1h1.23c.92,0,1.38-.42,1.38-1.13S239.48,23.84,238.56,23.84Z"/><path class="cls-1" d="M250.47,27.9v1.21h-5v-6.5h4.91v1.21h-3.42v1.41h3V26.4h-3v1.5Z"/><path class="cls-1" d="M253.94,28.47l.51-1.14a3.84,3.84,0,0,0,2.15.68c.89,0,1.25-.3,1.25-.69,0-1.22-3.78-.38-3.78-2.8,0-1.1.89-2,2.74-2a4.33,4.33,0,0,1,2.25.58l-.46,1.14a3.68,3.68,0,0,0-1.8-.51c-.89,0-1.23.33-1.23.74,0,1.2,3.77.37,3.77,2.75,0,1.09-.9,2-2.75,2A4.7,4.7,0,0,1,253.94,28.47Z"/><path class="cls-1" d="M262.75,25.86a3.56,3.56,0,1,1,3.55,3.36A3.36,3.36,0,0,1,262.75,25.86Zm5.58,0a2,2,0,1,0-2,2.08A2,2,0,0,0,268.33,25.86Z"/><path class="cls-1" d="M277.92,29.11l-1.25-1.81h-1.39v1.81h-1.5v-6.5h2.81c1.73,0,2.82.9,2.82,2.36A2.11,2.11,0,0,1,278.07,27l1.46,2.09Zm-1.41-5.27h-1.23V26.1h1.23c.92,0,1.38-.42,1.38-1.13S277.43,23.84,276.51,23.84Z"/><path class="cls-1" d="M284.64,23.84h-2.08V22.61h5.66v1.23h-2.08v5.27h-1.5Z"/></g></g></svg>